<?xml version="1.0" encoding="UTF-8"?>
<!DOCTYPE svg PUBLIC "-//W3C//DTD SVG 1.1//EN" "http://www.w3.org/Graphics/SVG/1.1/DTD/svg11.dtd">
<svg version="1.1" xmlns="http://www.w3.org/2000/svg" xmlns:xlink="http://www.w3.org/1999/xlink" x="0" y="0" width="160" height="20" viewBox="0, 0, 160, 20">
  <g id="Background">
    <rect x="0" y="0" width="160" height="20" fill="#000000" fill-opacity="0"/>
  </g>
  <g id="Layer_1">
    <g id="radio">
      <path d="M25.973,15.066 L25.973,15.558 C25.973,15.83 25.752,16.05 25.48,16.05 C25.48,16.05 24.495,16.05 24.495,16.05 C24.222,16.05 24.002,15.83 24.002,15.558 C24.002,15.287 24.002,15.066 24.002,15.066 L25.973,15.066 z M15.622,15.066 L15.622,15.558 C15.622,15.83 15.401,16.05 15.129,16.05 C15.129,16.05 14.143,16.05 14.143,16.05 C13.871,16.05 13.65,15.83 13.65,15.558 C13.65,15.287 13.65,15.066 13.65,15.066 L15.622,15.066 z M18.579,1.755 C18.869,1.755 19.103,1.989 19.103,2.278 C19.103,2.347 19.088,2.411 19.064,2.471 C19.064,2.471 24.926,4.737 24.926,4.737 C24.926,4.737 26.959,4.737 26.959,4.737 C27.503,4.737 27.945,5.177 27.945,5.721 C27.945,5.721 27.945,14.082 27.945,14.082 C27.945,14.625 27.503,15.066 26.959,15.066 C26.959,15.066 12.664,15.066 12.664,15.066 C12.12,15.066 11.678,14.625 11.678,14.082 C11.678,14.082 11.678,5.721 11.678,5.721 C11.678,5.177 12.12,4.737 12.664,4.737 C12.664,4.737 23.108,4.737 23.108,4.737 C23.108,4.737 19.034,2.522 19.034,2.522 C18.946,2.685 18.779,2.8 18.579,2.8 C18.29,2.8 18.056,2.566 18.056,2.278 C18.056,1.989 18.29,1.755 18.579,1.755 z M25.48,11.633 C24.936,11.633 24.494,12.073 24.494,12.617 C24.494,13.16 24.936,13.6 25.48,13.6 C26.024,13.6 26.466,13.16 26.466,12.617 C26.466,12.073 26.024,11.633 25.48,11.633 z M16.854,6.213 C14.812,6.213 13.157,7.864 13.157,9.901 C13.157,11.939 14.812,13.59 16.854,13.59 C18.896,13.59 20.551,11.939 20.551,9.901 C20.551,7.864 18.896,6.213 16.854,6.213 z M17.101,12.606 C17.101,12.606 17.101,13.081 17.101,13.081 C17.018,13.087 16.938,13.098 16.854,13.098 C16.769,13.098 16.691,13.079 16.608,13.072 C16.608,13.072 16.608,12.606 16.608,12.606 L17.101,12.606 z M18.086,12.606 C18.086,12.606 18.086,12.843 18.086,12.843 C17.928,12.908 17.763,12.961 17.594,13.003 L17.593,12.606 L18.086,12.606 z M16.115,12.606 C16.115,12.606 16.115,12.999 16.115,12.999 C15.946,12.957 15.779,12.909 15.622,12.842 L15.622,12.606 L16.115,12.606 z M17.101,11.623 C17.101,11.623 17.101,12.115 17.101,12.115 C17.101,12.115 16.608,12.115 16.608,12.115 L16.608,11.623 L17.101,11.623 z M18.086,11.623 C18.086,11.623 18.086,12.115 18.086,12.115 C18.086,12.115 17.594,12.115 17.594,12.115 L17.593,11.623 L18.086,11.623 z M16.115,11.623 C16.115,11.623 16.115,12.115 16.115,12.115 C16.115,12.115 15.622,12.115 15.622,12.115 L15.622,11.623 L16.115,11.623 z M15.129,11.623 C15.129,11.623 15.129,12.115 15.129,12.115 C15.129,12.115 14.636,12.115 14.636,12.115 L14.636,11.623 L15.129,11.623 z M19.072,11.623 L19.072,12.115 C19.072,12.115 18.579,12.115 18.579,12.115 C18.579,12.115 18.579,11.623 18.579,11.623 L19.072,11.623 z M14.143,10.639 C14.143,10.639 14.143,11.131 14.143,11.131 C14.143,11.131 13.906,11.131 13.906,11.131 C13.84,10.973 13.785,10.809 13.744,10.639 L14.143,10.639 z M19.072,10.639 L19.072,11.131 C19.072,11.131 18.579,11.131 18.579,11.131 C18.579,11.131 18.579,10.639 18.579,10.639 L19.072,10.639 z M15.129,10.639 C15.129,10.639 15.129,11.131 15.129,11.131 C15.129,11.131 14.636,11.131 14.636,11.131 L14.636,10.639 L15.129,10.639 z M16.115,10.639 C16.115,10.639 16.115,11.131 16.115,11.131 C16.115,11.131 15.622,11.131 15.622,11.131 L15.622,10.639 L16.115,10.639 z M18.086,10.639 C18.086,10.639 18.086,11.131 18.086,11.131 C18.086,11.131 17.594,11.131 17.594,11.131 L17.593,10.639 L18.086,10.639 z M19.964,10.639 C19.923,10.809 19.868,10.973 19.802,11.131 C19.802,11.131 19.565,11.131 19.565,11.131 L19.565,10.639 L19.964,10.639 z M17.101,10.639 C17.101,10.639 17.101,11.131 17.101,11.131 C17.101,11.131 16.608,11.131 16.608,11.131 L16.608,10.639 L17.101,10.639 z M17.101,9.655 C17.101,9.656 17.101,10.147 17.101,10.147 C17.101,10.147 16.608,10.147 16.608,10.147 L16.608,9.655 L17.101,9.655 z M20.033,9.655 C20.039,9.738 20.058,9.817 20.058,9.901 C20.058,9.985 20.04,10.065 20.034,10.147 C20.034,10.147 19.565,10.147 19.565,10.147 L19.565,9.655 L20.033,9.655 z M18.086,9.655 C18.086,9.656 18.086,10.147 18.086,10.147 C18.086,10.147 17.594,10.147 17.594,10.147 L17.593,9.655 L18.086,9.655 z M16.115,9.655 C16.115,9.656 16.115,10.147 16.115,10.147 C16.115,10.147 15.622,10.147 15.622,10.147 L15.622,9.655 L16.115,9.655 z M15.129,9.655 C15.129,9.656 15.129,10.147 15.129,10.147 C15.129,10.147 14.636,10.147 14.636,10.147 L14.636,9.655 L15.129,9.655 z M19.072,9.655 L19.072,10.147 C19.072,10.147 18.579,10.147 18.579,10.147 C18.579,10.147 18.579,9.656 18.579,9.656 L19.072,9.655 z M14.143,9.655 C14.143,9.656 14.143,10.147 14.143,10.147 C14.143,10.147 13.675,10.147 13.675,10.147 C13.668,10.065 13.65,9.985 13.65,9.901 C13.65,9.817 13.669,9.738 13.675,9.656 L14.143,9.655 z M14.143,8.672 C14.143,8.672 14.143,9.164 14.143,9.164 C14.143,9.164 13.747,9.164 13.747,9.164 C13.787,8.995 13.834,8.829 13.9,8.672 L14.143,8.672 z M19.072,8.672 L19.072,9.164 C19.072,9.164 18.579,9.164 18.579,9.164 C18.579,9.164 18.579,8.672 18.579,8.672 L19.072,8.672 z M15.129,8.672 C15.129,8.672 15.129,9.164 15.129,9.164 C15.129,9.164 14.636,9.164 14.636,9.164 L14.636,8.672 L15.129,8.672 z M16.115,8.672 C16.115,8.672 16.115,9.164 16.115,9.164 C16.115,9.164 15.622,9.164 15.622,9.164 L15.622,8.672 L16.115,8.672 z M18.086,8.672 C18.086,8.672 18.086,9.164 18.086,9.164 C18.086,9.164 17.594,9.164 17.594,9.164 L17.593,8.672 L18.086,8.672 z M19.808,8.672 C19.874,8.829 19.921,8.995 19.961,9.164 C19.961,9.164 19.565,9.164 19.565,9.164 L19.565,8.672 L19.808,8.672 z M17.101,8.672 C17.101,8.672 17.101,9.164 17.101,9.164 C17.101,9.164 16.608,9.164 16.608,9.164 L16.608,8.672 L17.101,8.672 z M17.101,7.688 C17.101,7.688 17.101,8.18 17.101,8.18 C17.101,8.18 16.608,8.18 16.608,8.18 L16.608,7.688 L17.101,7.688 z M19.072,7.688 C19.072,7.688 19.072,8.18 19.072,8.18 L18.579,8.18 C18.579,8.18 18.579,7.688 18.579,7.688 L19.072,7.688 z M18.086,7.688 C18.086,7.688 18.086,8.18 18.086,8.18 C18.086,8.18 17.594,8.18 17.594,8.18 L17.593,7.688 L18.086,7.688 z M16.115,7.688 C16.115,7.688 16.115,8.18 16.115,8.18 C16.115,8.18 15.622,8.18 15.622,8.18 L15.622,7.688 L16.115,7.688 z M15.129,7.688 C15.129,7.688 15.129,8.18 15.129,8.18 C15.129,8.18 14.636,8.18 14.636,8.18 L14.636,7.688 L15.129,7.688 z M16.115,6.805 C16.115,6.805 16.115,7.196 16.115,7.196 C16.115,7.196 15.622,7.196 15.622,7.196 L15.622,6.962 C15.779,6.895 15.946,6.847 16.115,6.805 z M17.593,6.801 C17.763,6.842 17.928,6.896 18.086,6.961 C18.086,6.961 18.086,7.196 18.086,7.196 C18.086,7.196 17.594,7.196 17.594,7.196 L17.593,6.801 z M16.854,6.704 C16.938,6.704 17.018,6.716 17.101,6.722 C17.101,6.722 17.101,7.196 17.101,7.196 C17.101,7.196 16.608,7.196 16.608,7.196 L16.608,6.73 C16.691,6.724 16.769,6.704 16.854,6.704 z M22.523,11.623 C21.978,11.623 21.537,12.063 21.537,12.606 C21.537,13.15 21.978,13.59 22.523,13.59 C23.067,13.59 23.508,13.15 23.508,12.606 C23.508,12.063 23.067,11.623 22.523,11.623 z M26.466,6.213 C26.466,6.213 21.537,6.213 21.537,6.213 C21.537,6.213 21.537,7.688 21.537,7.688 C21.537,7.688 24.248,7.688 24.248,7.688 C24.248,7.688 24.741,6.704 24.741,6.704 C24.741,6.704 25.234,7.688 25.234,7.688 C25.234,7.688 26.466,7.688 26.466,7.688 L26.466,6.213 z" fill="#FCE546"/>
      <path d="M25.973,15.066 L25.973,15.558 C25.973,15.83 25.752,16.05 25.48,16.05 C25.48,16.05 24.495,16.05 24.495,16.05 C24.222,16.05 24.002,15.83 24.002,15.558 C24.002,15.287 24.002,15.066 24.002,15.066 L25.973,15.066 z M15.622,15.066 L15.622,15.558 C15.622,15.83 15.401,16.05 15.129,16.05 C15.129,16.05 14.143,16.05 14.143,16.05 C13.871,16.05 13.65,15.83 13.65,15.558 C13.65,15.287 13.65,15.066 13.65,15.066 L15.622,15.066 z M18.579,1.755 C18.869,1.755 19.103,1.989 19.103,2.278 C19.103,2.347 19.088,2.411 19.064,2.471 C19.064,2.471 24.926,4.737 24.926,4.737 C24.926,4.737 26.959,4.737 26.959,4.737 C27.503,4.737 27.945,5.177 27.945,5.721 C27.945,5.721 27.945,14.082 27.945,14.082 C27.945,14.625 27.503,15.066 26.959,15.066 C26.959,15.066 12.664,15.066 12.664,15.066 C12.12,15.066 11.678,14.625 11.678,14.082 C11.678,14.082 11.678,5.721 11.678,5.721 C11.678,5.177 12.12,4.737 12.664,4.737 C12.664,4.737 23.108,4.737 23.108,4.737 C23.108,4.737 19.034,2.522 19.034,2.522 C18.946,2.685 18.779,2.8 18.579,2.8 C18.29,2.8 18.056,2.566 18.056,2.278 C18.056,1.989 18.29,1.755 18.579,1.755 z M25.48,11.633 C24.936,11.633 24.494,12.073 24.494,12.617 C24.494,13.16 24.936,13.6 25.48,13.6 C26.024,13.6 26.466,13.16 26.466,12.617 C26.466,12.073 26.024,11.633 25.48,11.633 z M16.854,6.213 C14.812,6.213 13.157,7.864 13.157,9.901 C13.157,11.939 14.812,13.59 16.854,13.59 C18.896,13.59 20.551,11.939 20.551,9.901 C20.551,7.864 18.896,6.213 16.854,6.213 z M17.101,12.606 C17.101,12.606 17.101,13.081 17.101,13.081 C17.018,13.087 16.938,13.098 16.854,13.098 C16.769,13.098 16.691,13.079 16.608,13.072 C16.608,13.072 16.608,12.606 16.608,12.606 L17.101,12.606 z M18.086,12.606 C18.086,12.606 18.086,12.843 18.086,12.843 C17.928,12.908 17.763,12.961 17.594,13.003 L17.593,12.606 L18.086,12.606 z M16.115,12.606 C16.115,12.606 16.115,12.999 16.115,12.999 C15.946,12.957 15.779,12.909 15.622,12.842 L15.622,12.606 L16.115,12.606 z M17.101,11.623 C17.101,11.623 17.101,12.115 17.101,12.115 C17.101,12.115 16.608,12.115 16.608,12.115 L16.608,11.623 L17.101,11.623 z M18.086,11.623 C18.086,11.623 18.086,12.115 18.086,12.115 C18.086,12.115 17.594,12.115 17.594,12.115 L17.593,11.623 L18.086,11.623 z M16.115,11.623 C16.115,11.623 16.115,12.115 16.115,12.115 C16.115,12.115 15.622,12.115 15.622,12.115 L15.622,11.623 L16.115,11.623 z M15.129,11.623 C15.129,11.623 15.129,12.115 15.129,12.115 C15.129,12.115 14.636,12.115 14.636,12.115 L14.636,11.623 L15.129,11.623 z M19.072,11.623 L19.072,12.115 C19.072,12.115 18.579,12.115 18.579,12.115 C18.579,12.115 18.579,11.623 18.579,11.623 L19.072,11.623 z M14.143,10.639 C14.143,10.639 14.143,11.131 14.143,11.131 C14.143,11.131 13.906,11.131 13.906,11.131 C13.84,10.973 13.785,10.809 13.744,10.639 L14.143,10.639 z M19.072,10.639 L19.072,11.131 C19.072,11.131 18.579,11.131 18.579,11.131 C18.579,11.131 18.579,10.639 18.579,10.639 L19.072,10.639 z M15.129,10.639 C15.129,10.639 15.129,11.131 15.129,11.131 C15.129,11.131 14.636,11.131 14.636,11.131 L14.636,10.639 L15.129,10.639 z M16.115,10.639 C16.115,10.639 16.115,11.131 16.115,11.131 C16.115,11.131 15.622,11.131 15.622,11.131 L15.622,10.639 L16.115,10.639 z M18.086,10.639 C18.086,10.639 18.086,11.131 18.086,11.131 C18.086,11.131 17.594,11.131 17.594,11.131 L17.593,10.639 L18.086,10.639 z M19.964,10.639 C19.923,10.809 19.868,10.973 19.802,11.131 C19.802,11.131 19.565,11.131 19.565,11.131 L19.565,10.639 L19.964,10.639 z M17.101,10.639 C17.101,10.639 17.101,11.131 17.101,11.131 C17.101,11.131 16.608,11.131 16.608,11.131 L16.608,10.639 L17.101,10.639 z M17.101,9.655 C17.101,9.656 17.101,10.147 17.101,10.147 C17.101,10.147 16.608,10.147 16.608,10.147 L16.608,9.655 L17.101,9.655 z M20.033,9.655 C20.039,9.738 20.058,9.817 20.058,9.901 C20.058,9.985 20.04,10.065 20.034,10.147 C20.034,10.147 19.565,10.147 19.565,10.147 L19.565,9.655 L20.033,9.655 z M18.086,9.655 C18.086,9.656 18.086,10.147 18.086,10.147 C18.086,10.147 17.594,10.147 17.594,10.147 L17.593,9.655 L18.086,9.655 z M16.115,9.655 C16.115,9.656 16.115,10.147 16.115,10.147 C16.115,10.147 15.622,10.147 15.622,10.147 L15.622,9.655 L16.115,9.655 z M15.129,9.655 C15.129,9.656 15.129,10.147 15.129,10.147 C15.129,10.147 14.636,10.147 14.636,10.147 L14.636,9.655 L15.129,9.655 z M19.072,9.655 L19.072,10.147 C19.072,10.147 18.579,10.147 18.579,10.147 C18.579,10.147 18.579,9.656 18.579,9.656 L19.072,9.655 z M14.143,9.655 C14.143,9.656 14.143,10.147 14.143,10.147 C14.143,10.147 13.675,10.147 13.675,10.147 C13.668,10.065 13.65,9.985 13.65,9.901 C13.65,9.817 13.669,9.738 13.675,9.656 L14.143,9.655 z M14.143,8.672 C14.143,8.672 14.143,9.164 14.143,9.164 C14.143,9.164 13.747,9.164 13.747,9.164 C13.787,8.995 13.834,8.829 13.9,8.672 L14.143,8.672 z M19.072,8.672 L19.072,9.164 C19.072,9.164 18.579,9.164 18.579,9.164 C18.579,9.164 18.579,8.672 18.579,8.672 L19.072,8.672 z M15.129,8.672 C15.129,8.672 15.129,9.164 15.129,9.164 C15.129,9.164 14.636,9.164 14.636,9.164 L14.636,8.672 L15.129,8.672 z M16.115,8.672 C16.115,8.672 16.115,9.164 16.115,9.164 C16.115,9.164 15.622,9.164 15.622,9.164 L15.622,8.672 L16.115,8.672 z M18.086,8.672 C18.086,8.672 18.086,9.164 18.086,9.164 C18.086,9.164 17.594,9.164 17.594,9.164 L17.593,8.672 L18.086,8.672 z M19.808,8.672 C19.874,8.829 19.921,8.995 19.961,9.164 C19.961,9.164 19.565,9.164 19.565,9.164 L19.565,8.672 L19.808,8.672 z M17.101,8.672 C17.101,8.672 17.101,9.164 17.101,9.164 C17.101,9.164 16.608,9.164 16.608,9.164 L16.608,8.672 L17.101,8.672 z M17.101,7.688 C17.101,7.688 17.101,8.18 17.101,8.18 C17.101,8.18 16.608,8.18 16.608,8.18 L16.608,7.688 L17.101,7.688 z M19.072,7.688 C19.072,7.688 19.072,8.18 19.072,8.18 L18.579,8.18 C18.579,8.18 18.579,7.688 18.579,7.688 L19.072,7.688 z M18.086,7.688 C18.086,7.688 18.086,8.18 18.086,8.18 C18.086,8.18 17.594,8.18 17.594,8.18 L17.593,7.688 L18.086,7.688 z M16.115,7.688 C16.115,7.688 16.115,8.18 16.115,8.18 C16.115,8.18 15.622,8.18 15.622,8.18 L15.622,7.688 L16.115,7.688 z M15.129,7.688 C15.129,7.688 15.129,8.18 15.129,8.18 C15.129,8.18 14.636,8.18 14.636,8.18 L14.636,7.688 L15.129,7.688 z M16.115,6.805 C16.115,6.805 16.115,7.196 16.115,7.196 C16.115,7.196 15.622,7.196 15.622,7.196 L15.622,6.962 C15.779,6.895 15.946,6.847 16.115,6.805 z M17.593,6.801 C17.763,6.842 17.928,6.896 18.086,6.961 C18.086,6.961 18.086,7.196 18.086,7.196 C18.086,7.196 17.594,7.196 17.594,7.196 L17.593,6.801 z M16.854,6.704 C16.938,6.704 17.018,6.716 17.101,6.722 C17.101,6.722 17.101,7.196 17.101,7.196 C17.101,7.196 16.608,7.196 16.608,7.196 L16.608,6.73 C16.691,6.724 16.769,6.704 16.854,6.704 z M22.523,11.623 C21.978,11.623 21.537,12.063 21.537,12.606 C21.537,13.15 21.978,13.59 22.523,13.59 C23.067,13.59 23.508,13.15 23.508,12.606 C23.508,12.063 23.067,11.623 22.523,11.623 z M26.466,6.213 C26.466,6.213 21.537,6.213 21.537,6.213 C21.537,6.213 21.537,7.688 21.537,7.688 C21.537,7.688 24.248,7.688 24.248,7.688 C24.248,7.688 24.741,6.704 24.741,6.704 C24.741,6.704 25.234,7.688 25.234,7.688 C25.234,7.688 26.466,7.688 26.466,7.688 L26.466,6.213 z" fill="#FCE546"/>
    </g>
    <g>
      <g id="radio">
        <path d="M65.973,15.066 L65.973,15.558 C65.973,15.83 65.752,16.05 65.48,16.05 C65.48,16.05 64.495,16.05 64.495,16.05 C64.222,16.05 64.002,15.83 64.002,15.558 C64.002,15.287 64.002,15.066 64.002,15.066 L65.973,15.066 z M55.622,15.066 L55.622,15.558 C55.622,15.83 55.401,16.05 55.129,16.05 C55.129,16.05 54.143,16.05 54.143,16.05 C53.871,16.05 53.65,15.83 53.65,15.558 C53.65,15.287 53.65,15.066 53.65,15.066 L55.622,15.066 z M58.579,1.755 C58.868,1.755 59.103,1.989 59.103,2.278 C59.103,2.347 59.088,2.411 59.064,2.471 C59.064,2.471 64.926,4.737 64.926,4.737 C64.926,4.737 66.959,4.737 66.959,4.737 C67.503,4.737 67.945,5.177 67.945,5.721 C67.945,5.721 67.945,14.082 67.945,14.082 C67.945,14.625 67.503,15.066 66.959,15.066 C66.959,15.066 52.664,15.066 52.664,15.066 C52.12,15.066 51.678,14.625 51.678,14.082 C51.678,14.082 51.678,5.721 51.678,5.721 C51.678,5.177 52.12,4.737 52.664,4.737 C52.664,4.737 63.108,4.737 63.108,4.737 C63.108,4.737 59.034,2.522 59.034,2.522 C58.946,2.685 58.778,2.8 58.579,2.8 C58.29,2.8 58.056,2.566 58.056,2.278 C58.056,1.989 58.29,1.755 58.579,1.755 z M65.48,11.633 C64.936,11.633 64.494,12.073 64.494,12.617 C64.494,13.16 64.936,13.6 65.48,13.6 C66.024,13.6 66.466,13.16 66.466,12.617 C66.466,12.073 66.024,11.633 65.48,11.633 z M56.854,6.213 C54.812,6.213 53.157,7.864 53.157,9.901 C53.157,11.939 54.812,13.59 56.854,13.59 C58.896,13.59 60.551,11.939 60.551,9.901 C60.551,7.864 58.896,6.213 56.854,6.213 z M57.101,12.606 C57.101,12.606 57.101,13.081 57.101,13.081 C57.018,13.087 56.938,13.098 56.854,13.098 C56.769,13.098 56.691,13.079 56.607,13.072 C56.607,13.072 56.607,12.606 56.607,12.606 L57.101,12.606 z M58.086,12.606 C58.086,12.606 58.086,12.843 58.086,12.843 C57.928,12.908 57.763,12.961 57.594,13.003 L57.593,12.606 L58.086,12.606 z M56.115,12.606 C56.115,12.606 56.115,12.999 56.115,12.999 C55.946,12.957 55.779,12.909 55.622,12.842 L55.622,12.606 L56.115,12.606 z M57.101,11.623 C57.101,11.623 57.101,12.115 57.101,12.115 C57.101,12.115 56.607,12.115 56.607,12.115 L56.607,11.623 L57.101,11.623 z M58.086,11.623 C58.086,11.623 58.086,12.115 58.086,12.115 C58.086,12.115 57.594,12.115 57.594,12.115 L57.593,11.623 L58.086,11.623 z M56.115,11.623 C56.115,11.623 56.115,12.115 56.115,12.115 C56.115,12.115 55.622,12.115 55.622,12.115 L55.622,11.623 L56.115,11.623 z M55.129,11.623 C55.129,11.623 55.129,12.115 55.129,12.115 C55.129,12.115 54.636,12.115 54.636,12.115 L54.636,11.623 L55.129,11.623 z M59.072,11.623 L59.072,12.115 C59.072,12.115 58.579,12.115 58.579,12.115 C58.579,12.115 58.579,11.623 58.579,11.623 L59.072,11.623 z M54.143,10.639 C54.143,10.639 54.143,11.131 54.143,11.131 C54.143,11.131 53.906,11.131 53.906,11.131 C53.84,10.973 53.785,10.809 53.744,10.639 L54.143,10.639 z M59.072,10.639 L59.072,11.131 C59.072,11.131 58.579,11.131 58.579,11.131 C58.579,11.131 58.579,10.639 58.579,10.639 L59.072,10.639 z M55.129,10.639 C55.129,10.639 55.129,11.131 55.129,11.131 C55.129,11.131 54.636,11.131 54.636,11.131 L54.636,10.639 L55.129,10.639 z M56.115,10.639 C56.115,10.639 56.115,11.131 56.115,11.131 C56.115,11.131 55.622,11.131 55.622,11.131 L55.622,10.639 L56.115,10.639 z M58.086,10.639 C58.086,10.639 58.086,11.131 58.086,11.131 C58.086,11.131 57.594,11.131 57.594,11.131 L57.593,10.639 L58.086,10.639 z M59.964,10.639 C59.923,10.809 59.868,10.973 59.802,11.131 C59.802,11.131 59.565,11.131 59.565,11.131 L59.565,10.639 L59.964,10.639 z M57.101,10.639 C57.101,10.639 57.101,11.131 57.101,11.131 C57.101,11.131 56.607,11.131 56.607,11.131 L56.607,10.639 L57.101,10.639 z M57.101,9.655 C57.101,9.656 57.101,10.147 57.101,10.147 C57.101,10.147 56.607,10.147 56.607,10.147 L56.607,9.655 L57.101,9.655 z M60.033,9.655 C60.039,9.738 60.058,9.817 60.058,9.901 C60.058,9.985 60.04,10.065 60.034,10.147 C60.034,10.147 59.565,10.147 59.565,10.147 L59.565,9.655 L60.033,9.655 z M58.086,9.655 C58.086,9.656 58.086,10.147 58.086,10.147 C58.086,10.147 57.594,10.147 57.594,10.147 L57.593,9.655 L58.086,9.655 z M56.115,9.655 C56.115,9.656 56.115,10.147 56.115,10.147 C56.115,10.147 55.622,10.147 55.622,10.147 L55.622,9.655 L56.115,9.655 z M55.129,9.655 C55.129,9.656 55.129,10.147 55.129,10.147 C55.129,10.147 54.636,10.147 54.636,10.147 L54.636,9.655 L55.129,9.655 z M59.072,9.655 L59.072,10.147 C59.072,10.147 58.579,10.147 58.579,10.147 C58.579,10.147 58.579,9.656 58.579,9.656 L59.072,9.655 z M54.143,9.655 C54.143,9.656 54.143,10.147 54.143,10.147 C54.143,10.147 53.675,10.147 53.675,10.147 C53.668,10.065 53.65,9.985 53.65,9.901 C53.65,9.817 53.669,9.738 53.675,9.656 L54.143,9.655 z M54.143,8.672 C54.143,8.672 54.143,9.164 54.143,9.164 C54.143,9.164 53.747,9.164 53.747,9.164 C53.787,8.995 53.834,8.829 53.9,8.672 L54.143,8.672 z M59.072,8.672 L59.072,9.164 C59.072,9.164 58.579,9.164 58.579,9.164 C58.579,9.164 58.579,8.672 58.579,8.672 L59.072,8.672 z M55.129,8.672 C55.129,8.672 55.129,9.164 55.129,9.164 C55.129,9.164 54.636,9.164 54.636,9.164 L54.636,8.672 L55.129,8.672 z M56.115,8.672 C56.115,8.672 56.115,9.164 56.115,9.164 C56.115,9.164 55.622,9.164 55.622,9.164 L55.622,8.672 L56.115,8.672 z M58.086,8.672 C58.086,8.672 58.086,9.164 58.086,9.164 C58.086,9.164 57.594,9.164 57.594,9.164 L57.593,8.672 L58.086,8.672 z M59.808,8.672 C59.874,8.829 59.921,8.995 59.961,9.164 C59.961,9.164 59.565,9.164 59.565,9.164 L59.565,8.672 L59.808,8.672 z M57.101,8.672 C57.101,8.672 57.101,9.164 57.101,9.164 C57.101,9.164 56.607,9.164 56.607,9.164 L56.607,8.672 L57.101,8.672 z M57.101,7.688 C57.101,7.688 57.101,8.18 57.101,8.18 C57.101,8.18 56.607,8.18 56.607,8.18 L56.607,7.688 L57.101,7.688 z M59.072,7.688 C59.072,7.688 59.072,8.18 59.072,8.18 L58.579,8.18 C58.579,8.18 58.579,7.688 58.579,7.688 L59.072,7.688 z M58.086,7.688 C58.086,7.688 58.086,8.18 58.086,8.18 C58.086,8.18 57.594,8.18 57.594,8.18 L57.593,7.688 L58.086,7.688 z M56.115,7.688 C56.115,7.688 56.115,8.18 56.115,8.18 C56.115,8.18 55.622,8.18 55.622,8.18 L55.622,7.688 L56.115,7.688 z M55.129,7.688 C55.129,7.688 55.129,8.18 55.129,8.18 C55.129,8.18 54.636,8.18 54.636,8.18 L54.636,7.688 L55.129,7.688 z M56.115,6.805 C56.115,6.805 56.115,7.196 56.115,7.196 C56.115,7.196 55.622,7.196 55.622,7.196 L55.622,6.962 C55.779,6.895 55.946,6.847 56.115,6.805 z M57.593,6.801 C57.763,6.842 57.928,6.896 58.086,6.961 C58.086,6.961 58.086,7.196 58.086,7.196 C58.086,7.196 57.594,7.196 57.594,7.196 L57.593,6.801 z M56.854,6.704 C56.938,6.704 57.018,6.716 57.101,6.722 C57.101,6.722 57.101,7.196 57.101,7.196 C57.101,7.196 56.607,7.196 56.607,7.196 L56.607,6.73 C56.691,6.724 56.769,6.704 56.854,6.704 z M62.523,11.623 C61.978,11.623 61.537,12.063 61.537,12.606 C61.537,13.15 61.978,13.59 62.523,13.59 C63.067,13.59 63.508,13.15 63.508,12.606 C63.508,12.063 63.067,11.623 62.523,11.623 z M66.466,6.213 C66.466,6.213 61.537,6.213 61.537,6.213 C61.537,6.213 61.537,7.688 61.537,7.688 C61.537,7.688 64.248,7.688 64.248,7.688 C64.248,7.688 64.741,6.704 64.741,6.704 C64.741,6.704 65.234,7.688 65.234,7.688 C65.234,7.688 66.466,7.688 66.466,7.688 L66.466,6.213 z" fill="#FCE546"/>
        <path d="M65.973,15.066 L65.973,15.558 C65.973,15.83 65.752,16.05 65.48,16.05 C65.48,16.05 64.495,16.05 64.495,16.05 C64.222,16.05 64.002,15.83 64.002,15.558 C64.002,15.287 64.002,15.066 64.002,15.066 L65.973,15.066 z M55.622,15.066 L55.622,15.558 C55.622,15.83 55.401,16.05 55.129,16.05 C55.129,16.05 54.143,16.05 54.143,16.05 C53.871,16.05 53.65,15.83 53.65,15.558 C53.65,15.287 53.65,15.066 53.65,15.066 L55.622,15.066 z M58.579,1.755 C58.868,1.755 59.103,1.989 59.103,2.278 C59.103,2.347 59.088,2.411 59.064,2.471 C59.064,2.471 64.926,4.737 64.926,4.737 C64.926,4.737 66.959,4.737 66.959,4.737 C67.503,4.737 67.945,5.177 67.945,5.721 C67.945,5.721 67.945,14.082 67.945,14.082 C67.945,14.625 67.503,15.066 66.959,15.066 C66.959,15.066 52.664,15.066 52.664,15.066 C52.12,15.066 51.678,14.625 51.678,14.082 C51.678,14.082 51.678,5.721 51.678,5.721 C51.678,5.177 52.12,4.737 52.664,4.737 C52.664,4.737 63.108,4.737 63.108,4.737 C63.108,4.737 59.034,2.522 59.034,2.522 C58.946,2.685 58.778,2.8 58.579,2.8 C58.29,2.8 58.056,2.566 58.056,2.278 C58.056,1.989 58.29,1.755 58.579,1.755 z M65.48,11.633 C64.936,11.633 64.494,12.073 64.494,12.617 C64.494,13.16 64.936,13.6 65.48,13.6 C66.024,13.6 66.466,13.16 66.466,12.617 C66.466,12.073 66.024,11.633 65.48,11.633 z M56.854,6.213 C54.812,6.213 53.157,7.864 53.157,9.901 C53.157,11.939 54.812,13.59 56.854,13.59 C58.896,13.59 60.551,11.939 60.551,9.901 C60.551,7.864 58.896,6.213 56.854,6.213 z M57.101,12.606 C57.101,12.606 57.101,13.081 57.101,13.081 C57.018,13.087 56.938,13.098 56.854,13.098 C56.769,13.098 56.691,13.079 56.607,13.072 C56.607,13.072 56.607,12.606 56.607,12.606 L57.101,12.606 z M58.086,12.606 C58.086,12.606 58.086,12.843 58.086,12.843 C57.928,12.908 57.763,12.961 57.594,13.003 L57.593,12.606 L58.086,12.606 z M56.115,12.606 C56.115,12.606 56.115,12.999 56.115,12.999 C55.946,12.957 55.779,12.909 55.622,12.842 L55.622,12.606 L56.115,12.606 z M57.101,11.623 C57.101,11.623 57.101,12.115 57.101,12.115 C57.101,12.115 56.607,12.115 56.607,12.115 L56.607,11.623 L57.101,11.623 z M58.086,11.623 C58.086,11.623 58.086,12.115 58.086,12.115 C58.086,12.115 57.594,12.115 57.594,12.115 L57.593,11.623 L58.086,11.623 z M56.115,11.623 C56.115,11.623 56.115,12.115 56.115,12.115 C56.115,12.115 55.622,12.115 55.622,12.115 L55.622,11.623 L56.115,11.623 z M55.129,11.623 C55.129,11.623 55.129,12.115 55.129,12.115 C55.129,12.115 54.636,12.115 54.636,12.115 L54.636,11.623 L55.129,11.623 z M59.072,11.623 L59.072,12.115 C59.072,12.115 58.579,12.115 58.579,12.115 C58.579,12.115 58.579,11.623 58.579,11.623 L59.072,11.623 z M54.143,10.639 C54.143,10.639 54.143,11.131 54.143,11.131 C54.143,11.131 53.906,11.131 53.906,11.131 C53.84,10.973 53.785,10.809 53.744,10.639 L54.143,10.639 z M59.072,10.639 L59.072,11.131 C59.072,11.131 58.579,11.131 58.579,11.131 C58.579,11.131 58.579,10.639 58.579,10.639 L59.072,10.639 z M55.129,10.639 C55.129,10.639 55.129,11.131 55.129,11.131 C55.129,11.131 54.636,11.131 54.636,11.131 L54.636,10.639 L55.129,10.639 z M56.115,10.639 C56.115,10.639 56.115,11.131 56.115,11.131 C56.115,11.131 55.622,11.131 55.622,11.131 L55.622,10.639 L56.115,10.639 z M58.086,10.639 C58.086,10.639 58.086,11.131 58.086,11.131 C58.086,11.131 57.594,11.131 57.594,11.131 L57.593,10.639 L58.086,10.639 z M59.964,10.639 C59.923,10.809 59.868,10.973 59.802,11.131 C59.802,11.131 59.565,11.131 59.565,11.131 L59.565,10.639 L59.964,10.639 z M57.101,10.639 C57.101,10.639 57.101,11.131 57.101,11.131 C57.101,11.131 56.607,11.131 56.607,11.131 L56.607,10.639 L57.101,10.639 z M57.101,9.655 C57.101,9.656 57.101,10.147 57.101,10.147 C57.101,10.147 56.607,10.147 56.607,10.147 L56.607,9.655 L57.101,9.655 z M60.033,9.655 C60.039,9.738 60.058,9.817 60.058,9.901 C60.058,9.985 60.04,10.065 60.034,10.147 C60.034,10.147 59.565,10.147 59.565,10.147 L59.565,9.655 L60.033,9.655 z M58.086,9.655 C58.086,9.656 58.086,10.147 58.086,10.147 C58.086,10.147 57.594,10.147 57.594,10.147 L57.593,9.655 L58.086,9.655 z M56.115,9.655 C56.115,9.656 56.115,10.147 56.115,10.147 C56.115,10.147 55.622,10.147 55.622,10.147 L55.622,9.655 L56.115,9.655 z M55.129,9.655 C55.129,9.656 55.129,10.147 55.129,10.147 C55.129,10.147 54.636,10.147 54.636,10.147 L54.636,9.655 L55.129,9.655 z M59.072,9.655 L59.072,10.147 C59.072,10.147 58.579,10.147 58.579,10.147 C58.579,10.147 58.579,9.656 58.579,9.656 L59.072,9.655 z M54.143,9.655 C54.143,9.656 54.143,10.147 54.143,10.147 C54.143,10.147 53.675,10.147 53.675,10.147 C53.668,10.065 53.65,9.985 53.65,9.901 C53.65,9.817 53.669,9.738 53.675,9.656 L54.143,9.655 z M54.143,8.672 C54.143,8.672 54.143,9.164 54.143,9.164 C54.143,9.164 53.747,9.164 53.747,9.164 C53.787,8.995 53.834,8.829 53.9,8.672 L54.143,8.672 z M59.072,8.672 L59.072,9.164 C59.072,9.164 58.579,9.164 58.579,9.164 C58.579,9.164 58.579,8.672 58.579,8.672 L59.072,8.672 z M55.129,8.672 C55.129,8.672 55.129,9.164 55.129,9.164 C55.129,9.164 54.636,9.164 54.636,9.164 L54.636,8.672 L55.129,8.672 z M56.115,8.672 C56.115,8.672 56.115,9.164 56.115,9.164 C56.115,9.164 55.622,9.164 55.622,9.164 L55.622,8.672 L56.115,8.672 z M58.086,8.672 C58.086,8.672 58.086,9.164 58.086,9.164 C58.086,9.164 57.594,9.164 57.594,9.164 L57.593,8.672 L58.086,8.672 z M59.808,8.672 C59.874,8.829 59.921,8.995 59.961,9.164 C59.961,9.164 59.565,9.164 59.565,9.164 L59.565,8.672 L59.808,8.672 z M57.101,8.672 C57.101,8.672 57.101,9.164 57.101,9.164 C57.101,9.164 56.607,9.164 56.607,9.164 L56.607,8.672 L57.101,8.672 z M57.101,7.688 C57.101,7.688 57.101,8.18 57.101,8.18 C57.101,8.18 56.607,8.18 56.607,8.18 L56.607,7.688 L57.101,7.688 z M59.072,7.688 C59.072,7.688 59.072,8.18 59.072,8.18 L58.579,8.18 C58.579,8.18 58.579,7.688 58.579,7.688 L59.072,7.688 z M58.086,7.688 C58.086,7.688 58.086,8.18 58.086,8.18 C58.086,8.18 57.594,8.18 57.594,8.18 L57.593,7.688 L58.086,7.688 z M56.115,7.688 C56.115,7.688 56.115,8.18 56.115,8.18 C56.115,8.18 55.622,8.18 55.622,8.18 L55.622,7.688 L56.115,7.688 z M55.129,7.688 C55.129,7.688 55.129,8.18 55.129,8.18 C55.129,8.18 54.636,8.18 54.636,8.18 L54.636,7.688 L55.129,7.688 z M56.115,6.805 C56.115,6.805 56.115,7.196 56.115,7.196 C56.115,7.196 55.622,7.196 55.622,7.196 L55.622,6.962 C55.779,6.895 55.946,6.847 56.115,6.805 z M57.593,6.801 C57.763,6.842 57.928,6.896 58.086,6.961 C58.086,6.961 58.086,7.196 58.086,7.196 C58.086,7.196 57.594,7.196 57.594,7.196 L57.593,6.801 z M56.854,6.704 C56.938,6.704 57.018,6.716 57.101,6.722 C57.101,6.722 57.101,7.196 57.101,7.196 C57.101,7.196 56.607,7.196 56.607,7.196 L56.607,6.73 C56.691,6.724 56.769,6.704 56.854,6.704 z M62.523,11.623 C61.978,11.623 61.537,12.063 61.537,12.606 C61.537,13.15 61.978,13.59 62.523,13.59 C63.067,13.59 63.508,13.15 63.508,12.606 C63.508,12.063 63.067,11.623 62.523,11.623 z M66.466,6.213 C66.466,6.213 61.537,6.213 61.537,6.213 C61.537,6.213 61.537,7.688 61.537,7.688 C61.537,7.688 64.248,7.688 64.248,7.688 C64.248,7.688 64.741,6.704 64.741,6.704 C64.741,6.704 65.234,7.688 65.234,7.688 C65.234,7.688 66.466,7.688 66.466,7.688 L66.466,6.213 z" fill="#FCE546"/>
      </g>
      <g>
        <path d="M49.743,15.17 C49.743,15.17 50.648,13.245 50.648,13.245 C49.713,12.439 49.105,11.261 49.072,9.964 C49.035,8.534 49.325,7.25 50.383,6.502 C50.383,6.502 49.419,4.83 49.419,4.83 C48.041,6.06 47.2,7.871 47.253,9.916 C47.307,11.985 48.266,13.866 49.743,15.17 z" fill="#FCE546"/>
        <path d="M49.743,15.17 C49.743,15.17 50.648,13.245 50.648,13.245 C49.713,12.439 49.105,11.261 49.072,9.964 C49.035,8.534 49.325,7.25 50.383,6.502 C50.383,6.502 49.419,4.83 49.419,4.83 C48.041,6.06 47.2,7.871 47.253,9.916 C47.307,11.985 48.266,13.866 49.743,15.17 z" fill="#FCE546"/>
      </g>
      <g>
        <path d="M70.148,4.76 C70.148,4.76 69.23,6.71 69.23,6.71 C70.177,7.528 70.794,8.722 70.827,10.037 C70.865,11.486 70.571,12.788 69.498,13.546 C69.498,13.546 70.476,15.24 70.476,15.24 C71.873,13.994 72.725,12.157 72.671,10.086 C72.617,7.987 71.645,6.081 70.148,4.76 z" fill="#FCE546"/>
        <path d="M70.148,4.76 C70.148,4.76 69.23,6.71 69.23,6.71 C70.177,7.528 70.794,8.722 70.827,10.037 C70.865,11.486 70.571,12.788 69.498,13.546 C69.498,13.546 70.476,15.24 70.476,15.24 C71.873,13.994 72.725,12.157 72.671,10.086 C72.617,7.987 71.645,6.081 70.148,4.76 z" fill="#FCE546"/>
      </g>
    </g>
    <g>
      <g id="radio">
        <path d="M105.973,15.066 L105.973,15.558 C105.973,15.83 105.752,16.05 105.48,16.05 C105.48,16.05 104.495,16.05 104.495,16.05 C104.222,16.05 104.002,15.83 104.002,15.558 C104.002,15.287 104.002,15.066 104.002,15.066 L105.973,15.066 z M95.622,15.066 L95.622,15.558 C95.622,15.83 95.401,16.05 95.129,16.05 C95.129,16.05 94.143,16.05 94.143,16.05 C93.871,16.05 93.65,15.83 93.65,15.558 C93.65,15.287 93.65,15.066 93.65,15.066 L95.622,15.066 z M98.579,1.755 C98.868,1.755 99.103,1.989 99.103,2.278 C99.103,2.347 99.088,2.411 99.064,2.471 C99.064,2.471 104.926,4.737 104.926,4.737 C104.926,4.737 106.959,4.737 106.959,4.737 C107.503,4.737 107.945,5.177 107.945,5.721 C107.945,5.721 107.945,14.082 107.945,14.082 C107.945,14.625 107.503,15.066 106.959,15.066 C106.959,15.066 92.664,15.066 92.664,15.066 C92.12,15.066 91.678,14.625 91.678,14.082 C91.678,14.082 91.678,5.721 91.678,5.721 C91.678,5.177 92.12,4.737 92.664,4.737 C92.664,4.737 103.108,4.737 103.108,4.737 C103.108,4.737 99.034,2.522 99.034,2.522 C98.946,2.685 98.778,2.8 98.579,2.8 C98.29,2.8 98.056,2.566 98.056,2.278 C98.056,1.989 98.29,1.755 98.579,1.755 z M105.48,11.633 C104.936,11.633 104.494,12.073 104.494,12.617 C104.494,13.16 104.936,13.6 105.48,13.6 C106.024,13.6 106.466,13.16 106.466,12.617 C106.466,12.073 106.024,11.633 105.48,11.633 z M96.854,6.213 C94.812,6.213 93.157,7.864 93.157,9.901 C93.157,11.939 94.812,13.59 96.854,13.59 C98.896,13.59 100.551,11.939 100.551,9.901 C100.551,7.864 98.896,6.213 96.854,6.213 z M97.101,12.606 C97.101,12.606 97.101,13.081 97.101,13.081 C97.018,13.087 96.938,13.098 96.854,13.098 C96.769,13.098 96.691,13.079 96.607,13.072 C96.607,13.072 96.607,12.606 96.607,12.606 L97.101,12.606 z M98.086,12.606 C98.086,12.606 98.086,12.843 98.086,12.843 C97.928,12.908 97.763,12.961 97.594,13.003 L97.593,12.606 L98.086,12.606 z M96.115,12.606 C96.115,12.606 96.115,12.999 96.115,12.999 C95.946,12.957 95.779,12.909 95.622,12.842 L95.622,12.606 L96.115,12.606 z M97.101,11.623 C97.101,11.623 97.101,12.115 97.101,12.115 C97.101,12.115 96.607,12.115 96.607,12.115 L96.607,11.623 L97.101,11.623 z M98.086,11.623 C98.086,11.623 98.086,12.115 98.086,12.115 C98.086,12.115 97.594,12.115 97.594,12.115 L97.593,11.623 L98.086,11.623 z M96.115,11.623 C96.115,11.623 96.115,12.115 96.115,12.115 C96.115,12.115 95.622,12.115 95.622,12.115 L95.622,11.623 L96.115,11.623 z M95.129,11.623 C95.129,11.623 95.129,12.115 95.129,12.115 C95.129,12.115 94.636,12.115 94.636,12.115 L94.636,11.623 L95.129,11.623 z M99.072,11.623 L99.072,12.115 C99.072,12.115 98.579,12.115 98.579,12.115 C98.579,12.115 98.579,11.623 98.579,11.623 L99.072,11.623 z M94.143,10.639 C94.143,10.639 94.143,11.131 94.143,11.131 C94.143,11.131 93.906,11.131 93.906,11.131 C93.84,10.973 93.785,10.809 93.744,10.639 L94.143,10.639 z M99.072,10.639 L99.072,11.131 C99.072,11.131 98.579,11.131 98.579,11.131 C98.579,11.131 98.579,10.639 98.579,10.639 L99.072,10.639 z M95.129,10.639 C95.129,10.639 95.129,11.131 95.129,11.131 C95.129,11.131 94.636,11.131 94.636,11.131 L94.636,10.639 L95.129,10.639 z M96.115,10.639 C96.115,10.639 96.115,11.131 96.115,11.131 C96.115,11.131 95.622,11.131 95.622,11.131 L95.622,10.639 L96.115,10.639 z M98.086,10.639 C98.086,10.639 98.086,11.131 98.086,11.131 C98.086,11.131 97.594,11.131 97.594,11.131 L97.593,10.639 L98.086,10.639 z M99.964,10.639 C99.923,10.809 99.868,10.973 99.802,11.131 C99.802,11.131 99.565,11.131 99.565,11.131 L99.565,10.639 L99.964,10.639 z M97.101,10.639 C97.101,10.639 97.101,11.131 97.101,11.131 C97.101,11.131 96.607,11.131 96.607,11.131 L96.607,10.639 L97.101,10.639 z M97.101,9.655 C97.101,9.656 97.101,10.147 97.101,10.147 C97.101,10.147 96.607,10.147 96.607,10.147 L96.607,9.655 L97.101,9.655 z M100.033,9.655 C100.039,9.738 100.058,9.817 100.058,9.901 C100.058,9.985 100.04,10.065 100.034,10.147 C100.034,10.147 99.565,10.147 99.565,10.147 L99.565,9.655 L100.033,9.655 z M98.086,9.655 C98.086,9.656 98.086,10.147 98.086,10.147 C98.086,10.147 97.594,10.147 97.594,10.147 L97.593,9.655 L98.086,9.655 z M96.115,9.655 C96.115,9.656 96.115,10.147 96.115,10.147 C96.115,10.147 95.622,10.147 95.622,10.147 L95.622,9.655 L96.115,9.655 z M95.129,9.655 C95.129,9.656 95.129,10.147 95.129,10.147 C95.129,10.147 94.636,10.147 94.636,10.147 L94.636,9.655 L95.129,9.655 z M99.072,9.655 L99.072,10.147 C99.072,10.147 98.579,10.147 98.579,10.147 C98.579,10.147 98.579,9.656 98.579,9.656 L99.072,9.655 z M94.143,9.655 C94.143,9.656 94.143,10.147 94.143,10.147 C94.143,10.147 93.675,10.147 93.675,10.147 C93.668,10.065 93.65,9.985 93.65,9.901 C93.65,9.817 93.669,9.738 93.675,9.656 L94.143,9.655 z M94.143,8.672 C94.143,8.672 94.143,9.164 94.143,9.164 C94.143,9.164 93.747,9.164 93.747,9.164 C93.787,8.995 93.834,8.829 93.9,8.672 L94.143,8.672 z M99.072,8.672 L99.072,9.164 C99.072,9.164 98.579,9.164 98.579,9.164 C98.579,9.164 98.579,8.672 98.579,8.672 L99.072,8.672 z M95.129,8.672 C95.129,8.672 95.129,9.164 95.129,9.164 C95.129,9.164 94.636,9.164 94.636,9.164 L94.636,8.672 L95.129,8.672 z M96.115,8.672 C96.115,8.672 96.115,9.164 96.115,9.164 C96.115,9.164 95.622,9.164 95.622,9.164 L95.622,8.672 L96.115,8.672 z M98.086,8.672 C98.086,8.672 98.086,9.164 98.086,9.164 C98.086,9.164 97.594,9.164 97.594,9.164 L97.593,8.672 L98.086,8.672 z M99.808,8.672 C99.874,8.829 99.921,8.995 99.961,9.164 C99.961,9.164 99.565,9.164 99.565,9.164 L99.565,8.672 L99.808,8.672 z M97.101,8.672 C97.101,8.672 97.101,9.164 97.101,9.164 C97.101,9.164 96.607,9.164 96.607,9.164 L96.607,8.672 L97.101,8.672 z M97.101,7.688 C97.101,7.688 97.101,8.18 97.101,8.18 C97.101,8.18 96.607,8.18 96.607,8.18 L96.607,7.688 L97.101,7.688 z M99.072,7.688 C99.072,7.688 99.072,8.18 99.072,8.18 L98.579,8.18 C98.579,8.18 98.579,7.688 98.579,7.688 L99.072,7.688 z M98.086,7.688 C98.086,7.688 98.086,8.18 98.086,8.18 C98.086,8.18 97.594,8.18 97.594,8.18 L97.593,7.688 L98.086,7.688 z M96.115,7.688 C96.115,7.688 96.115,8.18 96.115,8.18 C96.115,8.18 95.622,8.18 95.622,8.18 L95.622,7.688 L96.115,7.688 z M95.129,7.688 C95.129,7.688 95.129,8.18 95.129,8.18 C95.129,8.18 94.636,8.18 94.636,8.18 L94.636,7.688 L95.129,7.688 z M96.115,6.805 C96.115,6.805 96.115,7.196 96.115,7.196 C96.115,7.196 95.622,7.196 95.622,7.196 L95.622,6.962 C95.779,6.895 95.946,6.847 96.115,6.805 z M97.593,6.801 C97.763,6.842 97.928,6.896 98.086,6.961 C98.086,6.961 98.086,7.196 98.086,7.196 C98.086,7.196 97.594,7.196 97.594,7.196 L97.593,6.801 z M96.854,6.704 C96.938,6.704 97.018,6.716 97.101,6.722 C97.101,6.722 97.101,7.196 97.101,7.196 C97.101,7.196 96.607,7.196 96.607,7.196 L96.607,6.73 C96.691,6.724 96.769,6.704 96.854,6.704 z M102.523,11.623 C101.978,11.623 101.537,12.063 101.537,12.606 C101.537,13.15 101.978,13.59 102.523,13.59 C103.067,13.59 103.508,13.15 103.508,12.606 C103.508,12.063 103.067,11.623 102.523,11.623 z M106.466,6.213 C106.466,6.213 101.537,6.213 101.537,6.213 C101.537,6.213 101.537,7.688 101.537,7.688 C101.537,7.688 104.248,7.688 104.248,7.688 C104.248,7.688 104.741,6.704 104.741,6.704 C104.741,6.704 105.234,7.688 105.234,7.688 C105.234,7.688 106.466,7.688 106.466,7.688 L106.466,6.213 z" fill="#FCE546"/>
        <path d="M105.973,15.066 L105.973,15.558 C105.973,15.83 105.752,16.05 105.48,16.05 C105.48,16.05 104.495,16.05 104.495,16.05 C104.222,16.05 104.002,15.83 104.002,15.558 C104.002,15.287 104.002,15.066 104.002,15.066 L105.973,15.066 z M95.622,15.066 L95.622,15.558 C95.622,15.83 95.401,16.05 95.129,16.05 C95.129,16.05 94.143,16.05 94.143,16.05 C93.871,16.05 93.65,15.83 93.65,15.558 C93.65,15.287 93.65,15.066 93.65,15.066 L95.622,15.066 z M98.579,1.755 C98.868,1.755 99.103,1.989 99.103,2.278 C99.103,2.347 99.088,2.411 99.064,2.471 C99.064,2.471 104.926,4.737 104.926,4.737 C104.926,4.737 106.959,4.737 106.959,4.737 C107.503,4.737 107.945,5.177 107.945,5.721 C107.945,5.721 107.945,14.082 107.945,14.082 C107.945,14.625 107.503,15.066 106.959,15.066 C106.959,15.066 92.664,15.066 92.664,15.066 C92.12,15.066 91.678,14.625 91.678,14.082 C91.678,14.082 91.678,5.721 91.678,5.721 C91.678,5.177 92.12,4.737 92.664,4.737 C92.664,4.737 103.108,4.737 103.108,4.737 C103.108,4.737 99.034,2.522 99.034,2.522 C98.946,2.685 98.778,2.8 98.579,2.8 C98.29,2.8 98.056,2.566 98.056,2.278 C98.056,1.989 98.29,1.755 98.579,1.755 z M105.48,11.633 C104.936,11.633 104.494,12.073 104.494,12.617 C104.494,13.16 104.936,13.6 105.48,13.6 C106.024,13.6 106.466,13.16 106.466,12.617 C106.466,12.073 106.024,11.633 105.48,11.633 z M96.854,6.213 C94.812,6.213 93.157,7.864 93.157,9.901 C93.157,11.939 94.812,13.59 96.854,13.59 C98.896,13.59 100.551,11.939 100.551,9.901 C100.551,7.864 98.896,6.213 96.854,6.213 z M97.101,12.606 C97.101,12.606 97.101,13.081 97.101,13.081 C97.018,13.087 96.938,13.098 96.854,13.098 C96.769,13.098 96.691,13.079 96.607,13.072 C96.607,13.072 96.607,12.606 96.607,12.606 L97.101,12.606 z M98.086,12.606 C98.086,12.606 98.086,12.843 98.086,12.843 C97.928,12.908 97.763,12.961 97.594,13.003 L97.593,12.606 L98.086,12.606 z M96.115,12.606 C96.115,12.606 96.115,12.999 96.115,12.999 C95.946,12.957 95.779,12.909 95.622,12.842 L95.622,12.606 L96.115,12.606 z M97.101,11.623 C97.101,11.623 97.101,12.115 97.101,12.115 C97.101,12.115 96.607,12.115 96.607,12.115 L96.607,11.623 L97.101,11.623 z M98.086,11.623 C98.086,11.623 98.086,12.115 98.086,12.115 C98.086,12.115 97.594,12.115 97.594,12.115 L97.593,11.623 L98.086,11.623 z M96.115,11.623 C96.115,11.623 96.115,12.115 96.115,12.115 C96.115,12.115 95.622,12.115 95.622,12.115 L95.622,11.623 L96.115,11.623 z M95.129,11.623 C95.129,11.623 95.129,12.115 95.129,12.115 C95.129,12.115 94.636,12.115 94.636,12.115 L94.636,11.623 L95.129,11.623 z M99.072,11.623 L99.072,12.115 C99.072,12.115 98.579,12.115 98.579,12.115 C98.579,12.115 98.579,11.623 98.579,11.623 L99.072,11.623 z M94.143,10.639 C94.143,10.639 94.143,11.131 94.143,11.131 C94.143,11.131 93.906,11.131 93.906,11.131 C93.84,10.973 93.785,10.809 93.744,10.639 L94.143,10.639 z M99.072,10.639 L99.072,11.131 C99.072,11.131 98.579,11.131 98.579,11.131 C98.579,11.131 98.579,10.639 98.579,10.639 L99.072,10.639 z M95.129,10.639 C95.129,10.639 95.129,11.131 95.129,11.131 C95.129,11.131 94.636,11.131 94.636,11.131 L94.636,10.639 L95.129,10.639 z M96.115,10.639 C96.115,10.639 96.115,11.131 96.115,11.131 C96.115,11.131 95.622,11.131 95.622,11.131 L95.622,10.639 L96.115,10.639 z M98.086,10.639 C98.086,10.639 98.086,11.131 98.086,11.131 C98.086,11.131 97.594,11.131 97.594,11.131 L97.593,10.639 L98.086,10.639 z M99.964,10.639 C99.923,10.809 99.868,10.973 99.802,11.131 C99.802,11.131 99.565,11.131 99.565,11.131 L99.565,10.639 L99.964,10.639 z M97.101,10.639 C97.101,10.639 97.101,11.131 97.101,11.131 C97.101,11.131 96.607,11.131 96.607,11.131 L96.607,10.639 L97.101,10.639 z M97.101,9.655 C97.101,9.656 97.101,10.147 97.101,10.147 C97.101,10.147 96.607,10.147 96.607,10.147 L96.607,9.655 L97.101,9.655 z M100.033,9.655 C100.039,9.738 100.058,9.817 100.058,9.901 C100.058,9.985 100.04,10.065 100.034,10.147 C100.034,10.147 99.565,10.147 99.565,10.147 L99.565,9.655 L100.033,9.655 z M98.086,9.655 C98.086,9.656 98.086,10.147 98.086,10.147 C98.086,10.147 97.594,10.147 97.594,10.147 L97.593,9.655 L98.086,9.655 z M96.115,9.655 C96.115,9.656 96.115,10.147 96.115,10.147 C96.115,10.147 95.622,10.147 95.622,10.147 L95.622,9.655 L96.115,9.655 z M95.129,9.655 C95.129,9.656 95.129,10.147 95.129,10.147 C95.129,10.147 94.636,10.147 94.636,10.147 L94.636,9.655 L95.129,9.655 z M99.072,9.655 L99.072,10.147 C99.072,10.147 98.579,10.147 98.579,10.147 C98.579,10.147 98.579,9.656 98.579,9.656 L99.072,9.655 z M94.143,9.655 C94.143,9.656 94.143,10.147 94.143,10.147 C94.143,10.147 93.675,10.147 93.675,10.147 C93.668,10.065 93.65,9.985 93.65,9.901 C93.65,9.817 93.669,9.738 93.675,9.656 L94.143,9.655 z M94.143,8.672 C94.143,8.672 94.143,9.164 94.143,9.164 C94.143,9.164 93.747,9.164 93.747,9.164 C93.787,8.995 93.834,8.829 93.9,8.672 L94.143,8.672 z M99.072,8.672 L99.072,9.164 C99.072,9.164 98.579,9.164 98.579,9.164 C98.579,9.164 98.579,8.672 98.579,8.672 L99.072,8.672 z M95.129,8.672 C95.129,8.672 95.129,9.164 95.129,9.164 C95.129,9.164 94.636,9.164 94.636,9.164 L94.636,8.672 L95.129,8.672 z M96.115,8.672 C96.115,8.672 96.115,9.164 96.115,9.164 C96.115,9.164 95.622,9.164 95.622,9.164 L95.622,8.672 L96.115,8.672 z M98.086,8.672 C98.086,8.672 98.086,9.164 98.086,9.164 C98.086,9.164 97.594,9.164 97.594,9.164 L97.593,8.672 L98.086,8.672 z M99.808,8.672 C99.874,8.829 99.921,8.995 99.961,9.164 C99.961,9.164 99.565,9.164 99.565,9.164 L99.565,8.672 L99.808,8.672 z M97.101,8.672 C97.101,8.672 97.101,9.164 97.101,9.164 C97.101,9.164 96.607,9.164 96.607,9.164 L96.607,8.672 L97.101,8.672 z M97.101,7.688 C97.101,7.688 97.101,8.18 97.101,8.18 C97.101,8.18 96.607,8.18 96.607,8.18 L96.607,7.688 L97.101,7.688 z M99.072,7.688 C99.072,7.688 99.072,8.18 99.072,8.18 L98.579,8.18 C98.579,8.18 98.579,7.688 98.579,7.688 L99.072,7.688 z M98.086,7.688 C98.086,7.688 98.086,8.18 98.086,8.18 C98.086,8.18 97.594,8.18 97.594,8.18 L97.593,7.688 L98.086,7.688 z M96.115,7.688 C96.115,7.688 96.115,8.18 96.115,8.18 C96.115,8.18 95.622,8.18 95.622,8.18 L95.622,7.688 L96.115,7.688 z M95.129,7.688 C95.129,7.688 95.129,8.18 95.129,8.18 C95.129,8.18 94.636,8.18 94.636,8.18 L94.636,7.688 L95.129,7.688 z M96.115,6.805 C96.115,6.805 96.115,7.196 96.115,7.196 C96.115,7.196 95.622,7.196 95.622,7.196 L95.622,6.962 C95.779,6.895 95.946,6.847 96.115,6.805 z M97.593,6.801 C97.763,6.842 97.928,6.896 98.086,6.961 C98.086,6.961 98.086,7.196 98.086,7.196 C98.086,7.196 97.594,7.196 97.594,7.196 L97.593,6.801 z M96.854,6.704 C96.938,6.704 97.018,6.716 97.101,6.722 C97.101,6.722 97.101,7.196 97.101,7.196 C97.101,7.196 96.607,7.196 96.607,7.196 L96.607,6.73 C96.691,6.724 96.769,6.704 96.854,6.704 z M102.523,11.623 C101.978,11.623 101.537,12.063 101.537,12.606 C101.537,13.15 101.978,13.59 102.523,13.59 C103.067,13.59 103.508,13.15 103.508,12.606 C103.508,12.063 103.067,11.623 102.523,11.623 z M106.466,6.213 C106.466,6.213 101.537,6.213 101.537,6.213 C101.537,6.213 101.537,7.688 101.537,7.688 C101.537,7.688 104.248,7.688 104.248,7.688 C104.248,7.688 104.741,6.704 104.741,6.704 C104.741,6.704 105.234,7.688 105.234,7.688 C105.234,7.688 106.466,7.688 106.466,7.688 L106.466,6.213 z" fill="#FCE546"/>
      </g>
      <g>
        <path d="M89.743,15.17 C89.743,15.17 90.648,13.245 90.648,13.245 C89.713,12.439 89.105,11.261 89.072,9.964 C89.035,8.534 89.325,7.25 90.383,6.502 C90.383,6.502 89.419,4.83 89.419,4.83 C88.041,6.06 87.2,7.871 87.253,9.916 C87.307,11.985 88.266,13.866 89.743,15.17 z" fill="#FCE546"/>
        <path d="M89.743,15.17 C89.743,15.17 90.648,13.245 90.648,13.245 C89.713,12.439 89.105,11.261 89.072,9.964 C89.035,8.534 89.325,7.25 90.383,6.502 C90.383,6.502 89.419,4.83 89.419,4.83 C88.041,6.06 87.2,7.871 87.253,9.916 C87.307,11.985 88.266,13.866 89.743,15.17 z" fill="#FCE546"/>
      </g>
      <g>
        <path d="M87.663,17.597 C87.663,17.597 88.671,16.122 88.671,16.122 C87.08,14.525 86.04,12.349 85.977,9.978 C85.916,7.557 86.883,5.396 88.45,3.873 C88.45,3.873 87.327,2.403 87.327,2.403 C85.437,4.336 84.334,6.943 84.412,9.938 C84.488,12.876 85.735,15.576 87.663,17.597 z" fill="#FCE546"/>
        <path d="M87.663,17.597 C87.663,17.597 88.671,16.122 88.671,16.122 C87.08,14.525 86.04,12.349 85.977,9.978 C85.916,7.557 86.883,5.396 88.45,3.873 C88.45,3.873 87.327,2.403 87.327,2.403 C85.437,4.336 84.334,6.943 84.412,9.938 C84.488,12.876 85.735,15.576 87.663,17.597 z" fill="#FCE546"/>
      </g>
      <g>
        <path d="M110.148,4.76 C110.148,4.76 109.23,6.71 109.23,6.71 C110.177,7.528 110.794,8.722 110.827,10.037 C110.865,11.486 110.571,12.788 109.498,13.546 C109.498,13.546 110.476,15.24 110.476,15.24 C111.873,13.994 112.725,12.157 112.671,10.086 C112.617,7.987 111.645,6.081 110.148,4.76 z" fill="#FCE546"/>
        <path d="M110.148,4.76 C110.148,4.76 109.23,6.71 109.23,6.71 C110.177,7.528 110.794,8.722 110.827,10.037 C110.865,11.486 110.571,12.788 109.498,13.546 C109.498,13.546 110.476,15.24 110.476,15.24 C111.873,13.994 112.725,12.157 112.671,10.086 C112.617,7.987 111.645,6.081 110.148,4.76 z" fill="#FCE546"/>
      </g>
      <g>
        <path d="M112.255,2.299 C112.255,2.299 111.233,3.794 111.233,3.794 C112.847,5.414 113.901,7.619 113.964,10.022 C114.027,12.476 113.046,14.667 111.458,16.211 C111.458,16.211 112.596,17.701 112.596,17.701 C114.513,15.741 115.63,13.098 115.551,10.063 C115.474,7.085 114.21,4.348 112.255,2.299 z" fill="#FCE546"/>
        <path d="M112.255,2.299 C112.255,2.299 111.233,3.794 111.233,3.794 C112.847,5.414 113.901,7.619 113.964,10.022 C114.027,12.476 113.046,14.667 111.458,16.211 C111.458,16.211 112.596,17.701 112.596,17.701 C114.513,15.741 115.63,13.098 115.551,10.063 C115.474,7.085 114.21,4.348 112.255,2.299 z" fill="#FCE546"/>
      </g>
    </g>
    <g>
      <g id="radio">
        <path d="M145.973,15.066 L145.973,15.558 C145.973,15.83 145.752,16.05 145.48,16.05 C145.48,16.05 144.495,16.05 144.495,16.05 C144.222,16.05 144.002,15.83 144.002,15.558 C144.002,15.287 144.002,15.066 144.002,15.066 L145.973,15.066 z M135.622,15.066 L135.622,15.558 C135.622,15.83 135.401,16.05 135.129,16.05 C135.129,16.05 134.143,16.05 134.143,16.05 C133.871,16.05 133.65,15.83 133.65,15.558 C133.65,15.287 133.65,15.066 133.65,15.066 L135.622,15.066 z M138.579,1.755 C138.869,1.755 139.103,1.989 139.103,2.278 C139.103,2.347 139.088,2.411 139.064,2.471 C139.064,2.471 144.926,4.737 144.926,4.737 C144.926,4.737 146.959,4.737 146.959,4.737 C147.503,4.737 147.945,5.177 147.945,5.721 C147.945,5.721 147.945,14.082 147.945,14.082 C147.945,14.625 147.503,15.066 146.959,15.066 C146.959,15.066 132.664,15.066 132.664,15.066 C132.12,15.066 131.678,14.625 131.678,14.082 C131.678,14.082 131.678,5.721 131.678,5.721 C131.678,5.177 132.12,4.737 132.664,4.737 C132.664,4.737 143.108,4.737 143.108,4.737 C143.108,4.737 139.034,2.522 139.034,2.522 C138.946,2.685 138.779,2.8 138.579,2.8 C138.29,2.8 138.056,2.566 138.056,2.278 C138.056,1.989 138.29,1.755 138.579,1.755 z M145.48,11.633 C144.936,11.633 144.494,12.073 144.494,12.617 C144.494,13.16 144.936,13.6 145.48,13.6 C146.024,13.6 146.466,13.16 146.466,12.617 C146.466,12.073 146.024,11.633 145.48,11.633 z M136.854,6.213 C134.812,6.213 133.157,7.864 133.157,9.901 C133.157,11.939 134.812,13.59 136.854,13.59 C138.896,13.59 140.551,11.939 140.551,9.901 C140.551,7.864 138.896,6.213 136.854,6.213 z M137.101,12.606 C137.101,12.606 137.101,13.081 137.101,13.081 C137.018,13.087 136.938,13.098 136.854,13.098 C136.769,13.098 136.691,13.079 136.607,13.072 C136.607,13.072 136.607,12.606 136.607,12.606 L137.101,12.606 z M138.086,12.606 C138.086,12.606 138.086,12.843 138.086,12.843 C137.928,12.908 137.763,12.961 137.594,13.003 L137.593,12.606 L138.086,12.606 z M136.115,12.606 C136.115,12.606 136.115,12.999 136.115,12.999 C135.946,12.957 135.779,12.909 135.622,12.842 L135.622,12.606 L136.115,12.606 z M137.101,11.623 C137.101,11.623 137.101,12.115 137.101,12.115 C137.101,12.115 136.607,12.115 136.607,12.115 L136.607,11.623 L137.101,11.623 z M138.086,11.623 C138.086,11.623 138.086,12.115 138.086,12.115 C138.086,12.115 137.594,12.115 137.594,12.115 L137.593,11.623 L138.086,11.623 z M136.115,11.623 C136.115,11.623 136.115,12.115 136.115,12.115 C136.115,12.115 135.622,12.115 135.622,12.115 L135.622,11.623 L136.115,11.623 z M135.129,11.623 C135.129,11.623 135.129,12.115 135.129,12.115 C135.129,12.115 134.636,12.115 134.636,12.115 L134.636,11.623 L135.129,11.623 z M139.072,11.623 L139.072,12.115 C139.072,12.115 138.579,12.115 138.579,12.115 C138.579,12.115 138.579,11.623 138.579,11.623 L139.072,11.623 z M134.143,10.639 C134.143,10.639 134.143,11.131 134.143,11.131 C134.143,11.131 133.906,11.131 133.906,11.131 C133.84,10.973 133.785,10.809 133.744,10.639 L134.143,10.639 z M139.072,10.639 L139.072,11.131 C139.072,11.131 138.579,11.131 138.579,11.131 C138.579,11.131 138.579,10.639 138.579,10.639 L139.072,10.639 z M135.129,10.639 C135.129,10.639 135.129,11.131 135.129,11.131 C135.129,11.131 134.636,11.131 134.636,11.131 L134.636,10.639 L135.129,10.639 z M136.115,10.639 C136.115,10.639 136.115,11.131 136.115,11.131 C136.115,11.131 135.622,11.131 135.622,11.131 L135.622,10.639 L136.115,10.639 z M138.086,10.639 C138.086,10.639 138.086,11.131 138.086,11.131 C138.086,11.131 137.594,11.131 137.594,11.131 L137.593,10.639 L138.086,10.639 z M139.964,10.639 C139.923,10.809 139.868,10.973 139.802,11.131 C139.802,11.131 139.565,11.131 139.565,11.131 L139.565,10.639 L139.964,10.639 z M137.101,10.639 C137.101,10.639 137.101,11.131 137.101,11.131 C137.101,11.131 136.607,11.131 136.607,11.131 L136.607,10.639 L137.101,10.639 z M137.101,9.655 C137.101,9.656 137.101,10.147 137.101,10.147 C137.101,10.147 136.607,10.147 136.607,10.147 L136.607,9.655 L137.101,9.655 z M140.033,9.655 C140.039,9.738 140.058,9.817 140.058,9.901 C140.058,9.985 140.04,10.065 140.034,10.147 C140.034,10.147 139.565,10.147 139.565,10.147 L139.565,9.655 L140.033,9.655 z M138.086,9.655 C138.086,9.656 138.086,10.147 138.086,10.147 C138.086,10.147 137.594,10.147 137.594,10.147 L137.593,9.655 L138.086,9.655 z M136.115,9.655 C136.115,9.656 136.115,10.147 136.115,10.147 C136.115,10.147 135.622,10.147 135.622,10.147 L135.622,9.655 L136.115,9.655 z M135.129,9.655 C135.129,9.656 135.129,10.147 135.129,10.147 C135.129,10.147 134.636,10.147 134.636,10.147 L134.636,9.655 L135.129,9.655 z M139.072,9.655 L139.072,10.147 C139.072,10.147 138.579,10.147 138.579,10.147 C138.579,10.147 138.579,9.656 138.579,9.656 L139.072,9.655 z M134.143,9.655 C134.143,9.656 134.143,10.147 134.143,10.147 C134.143,10.147 133.675,10.147 133.675,10.147 C133.668,10.065 133.65,9.985 133.65,9.901 C133.65,9.817 133.669,9.738 133.675,9.656 L134.143,9.655 z M134.143,8.672 C134.143,8.672 134.143,9.164 134.143,9.164 C134.143,9.164 133.747,9.164 133.747,9.164 C133.787,8.995 133.834,8.829 133.9,8.672 L134.143,8.672 z M139.072,8.672 L139.072,9.164 C139.072,9.164 138.579,9.164 138.579,9.164 C138.579,9.164 138.579,8.672 138.579,8.672 L139.072,8.672 z M135.129,8.672 C135.129,8.672 135.129,9.164 135.129,9.164 C135.129,9.164 134.636,9.164 134.636,9.164 L134.636,8.672 L135.129,8.672 z M136.115,8.672 C136.115,8.672 136.115,9.164 136.115,9.164 C136.115,9.164 135.622,9.164 135.622,9.164 L135.622,8.672 L136.115,8.672 z M138.086,8.672 C138.086,8.672 138.086,9.164 138.086,9.164 C138.086,9.164 137.594,9.164 137.594,9.164 L137.593,8.672 L138.086,8.672 z M139.808,8.672 C139.874,8.829 139.921,8.995 139.961,9.164 C139.961,9.164 139.565,9.164 139.565,9.164 L139.565,8.672 L139.808,8.672 z M137.101,8.672 C137.101,8.672 137.101,9.164 137.101,9.164 C137.101,9.164 136.607,9.164 136.607,9.164 L136.607,8.672 L137.101,8.672 z M137.101,7.688 C137.101,7.688 137.101,8.18 137.101,8.18 C137.101,8.18 136.607,8.18 136.607,8.18 L136.607,7.688 L137.101,7.688 z M139.072,7.688 C139.072,7.688 139.072,8.18 139.072,8.18 L138.579,8.18 C138.579,8.18 138.579,7.688 138.579,7.688 L139.072,7.688 z M138.086,7.688 C138.086,7.688 138.086,8.18 138.086,8.18 C138.086,8.18 137.594,8.18 137.594,8.18 L137.593,7.688 L138.086,7.688 z M136.115,7.688 C136.115,7.688 136.115,8.18 136.115,8.18 C136.115,8.18 135.622,8.18 135.622,8.18 L135.622,7.688 L136.115,7.688 z M135.129,7.688 C135.129,7.688 135.129,8.18 135.129,8.18 C135.129,8.18 134.636,8.18 134.636,8.18 L134.636,7.688 L135.129,7.688 z M136.115,6.805 C136.115,6.805 136.115,7.196 136.115,7.196 C136.115,7.196 135.622,7.196 135.622,7.196 L135.622,6.962 C135.779,6.895 135.946,6.847 136.115,6.805 z M137.593,6.801 C137.763,6.842 137.928,6.896 138.086,6.961 C138.086,6.961 138.086,7.196 138.086,7.196 C138.086,7.196 137.594,7.196 137.594,7.196 L137.593,6.801 z M136.854,6.704 C136.938,6.704 137.018,6.716 137.101,6.722 C137.101,6.722 137.101,7.196 137.101,7.196 C137.101,7.196 136.607,7.196 136.607,7.196 L136.607,6.73 C136.691,6.724 136.769,6.704 136.854,6.704 z M142.523,11.623 C141.978,11.623 141.537,12.063 141.537,12.606 C141.537,13.15 141.978,13.59 142.523,13.59 C143.067,13.59 143.508,13.15 143.508,12.606 C143.508,12.063 143.067,11.623 142.523,11.623 z M146.466,6.213 C146.466,6.213 141.537,6.213 141.537,6.213 C141.537,6.213 141.537,7.688 141.537,7.688 C141.537,7.688 144.248,7.688 144.248,7.688 C144.248,7.688 144.741,6.704 144.741,6.704 C144.741,6.704 145.234,7.688 145.234,7.688 C145.234,7.688 146.466,7.688 146.466,7.688 L146.466,6.213 z" fill="#FCE546"/>
        <path d="M145.973,15.066 L145.973,15.558 C145.973,15.83 145.752,16.05 145.48,16.05 C145.48,16.05 144.495,16.05 144.495,16.05 C144.222,16.05 144.002,15.83 144.002,15.558 C144.002,15.287 144.002,15.066 144.002,15.066 L145.973,15.066 z M135.622,15.066 L135.622,15.558 C135.622,15.83 135.401,16.05 135.129,16.05 C135.129,16.05 134.143,16.05 134.143,16.05 C133.871,16.05 133.65,15.83 133.65,15.558 C133.65,15.287 133.65,15.066 133.65,15.066 L135.622,15.066 z M138.579,1.755 C138.869,1.755 139.103,1.989 139.103,2.278 C139.103,2.347 139.088,2.411 139.064,2.471 C139.064,2.471 144.926,4.737 144.926,4.737 C144.926,4.737 146.959,4.737 146.959,4.737 C147.503,4.737 147.945,5.177 147.945,5.721 C147.945,5.721 147.945,14.082 147.945,14.082 C147.945,14.625 147.503,15.066 146.959,15.066 C146.959,15.066 132.664,15.066 132.664,15.066 C132.12,15.066 131.678,14.625 131.678,14.082 C131.678,14.082 131.678,5.721 131.678,5.721 C131.678,5.177 132.12,4.737 132.664,4.737 C132.664,4.737 143.108,4.737 143.108,4.737 C143.108,4.737 139.034,2.522 139.034,2.522 C138.946,2.685 138.779,2.8 138.579,2.8 C138.29,2.8 138.056,2.566 138.056,2.278 C138.056,1.989 138.29,1.755 138.579,1.755 z M145.48,11.633 C144.936,11.633 144.494,12.073 144.494,12.617 C144.494,13.16 144.936,13.6 145.48,13.6 C146.024,13.6 146.466,13.16 146.466,12.617 C146.466,12.073 146.024,11.633 145.48,11.633 z M136.854,6.213 C134.812,6.213 133.157,7.864 133.157,9.901 C133.157,11.939 134.812,13.59 136.854,13.59 C138.896,13.59 140.551,11.939 140.551,9.901 C140.551,7.864 138.896,6.213 136.854,6.213 z M137.101,12.606 C137.101,12.606 137.101,13.081 137.101,13.081 C137.018,13.087 136.938,13.098 136.854,13.098 C136.769,13.098 136.691,13.079 136.607,13.072 C136.607,13.072 136.607,12.606 136.607,12.606 L137.101,12.606 z M138.086,12.606 C138.086,12.606 138.086,12.843 138.086,12.843 C137.928,12.908 137.763,12.961 137.594,13.003 L137.593,12.606 L138.086,12.606 z M136.115,12.606 C136.115,12.606 136.115,12.999 136.115,12.999 C135.946,12.957 135.779,12.909 135.622,12.842 L135.622,12.606 L136.115,12.606 z M137.101,11.623 C137.101,11.623 137.101,12.115 137.101,12.115 C137.101,12.115 136.607,12.115 136.607,12.115 L136.607,11.623 L137.101,11.623 z M138.086,11.623 C138.086,11.623 138.086,12.115 138.086,12.115 C138.086,12.115 137.594,12.115 137.594,12.115 L137.593,11.623 L138.086,11.623 z M136.115,11.623 C136.115,11.623 136.115,12.115 136.115,12.115 C136.115,12.115 135.622,12.115 135.622,12.115 L135.622,11.623 L136.115,11.623 z M135.129,11.623 C135.129,11.623 135.129,12.115 135.129,12.115 C135.129,12.115 134.636,12.115 134.636,12.115 L134.636,11.623 L135.129,11.623 z M139.072,11.623 L139.072,12.115 C139.072,12.115 138.579,12.115 138.579,12.115 C138.579,12.115 138.579,11.623 138.579,11.623 L139.072,11.623 z M134.143,10.639 C134.143,10.639 134.143,11.131 134.143,11.131 C134.143,11.131 133.906,11.131 133.906,11.131 C133.84,10.973 133.785,10.809 133.744,10.639 L134.143,10.639 z M139.072,10.639 L139.072,11.131 C139.072,11.131 138.579,11.131 138.579,11.131 C138.579,11.131 138.579,10.639 138.579,10.639 L139.072,10.639 z M135.129,10.639 C135.129,10.639 135.129,11.131 135.129,11.131 C135.129,11.131 134.636,11.131 134.636,11.131 L134.636,10.639 L135.129,10.639 z M136.115,10.639 C136.115,10.639 136.115,11.131 136.115,11.131 C136.115,11.131 135.622,11.131 135.622,11.131 L135.622,10.639 L136.115,10.639 z M138.086,10.639 C138.086,10.639 138.086,11.131 138.086,11.131 C138.086,11.131 137.594,11.131 137.594,11.131 L137.593,10.639 L138.086,10.639 z M139.964,10.639 C139.923,10.809 139.868,10.973 139.802,11.131 C139.802,11.131 139.565,11.131 139.565,11.131 L139.565,10.639 L139.964,10.639 z M137.101,10.639 C137.101,10.639 137.101,11.131 137.101,11.131 C137.101,11.131 136.607,11.131 136.607,11.131 L136.607,10.639 L137.101,10.639 z M137.101,9.655 C137.101,9.656 137.101,10.147 137.101,10.147 C137.101,10.147 136.607,10.147 136.607,10.147 L136.607,9.655 L137.101,9.655 z M140.033,9.655 C140.039,9.738 140.058,9.817 140.058,9.901 C140.058,9.985 140.04,10.065 140.034,10.147 C140.034,10.147 139.565,10.147 139.565,10.147 L139.565,9.655 L140.033,9.655 z M138.086,9.655 C138.086,9.656 138.086,10.147 138.086,10.147 C138.086,10.147 137.594,10.147 137.594,10.147 L137.593,9.655 L138.086,9.655 z M136.115,9.655 C136.115,9.656 136.115,10.147 136.115,10.147 C136.115,10.147 135.622,10.147 135.622,10.147 L135.622,9.655 L136.115,9.655 z M135.129,9.655 C135.129,9.656 135.129,10.147 135.129,10.147 C135.129,10.147 134.636,10.147 134.636,10.147 L134.636,9.655 L135.129,9.655 z M139.072,9.655 L139.072,10.147 C139.072,10.147 138.579,10.147 138.579,10.147 C138.579,10.147 138.579,9.656 138.579,9.656 L139.072,9.655 z M134.143,9.655 C134.143,9.656 134.143,10.147 134.143,10.147 C134.143,10.147 133.675,10.147 133.675,10.147 C133.668,10.065 133.65,9.985 133.65,9.901 C133.65,9.817 133.669,9.738 133.675,9.656 L134.143,9.655 z M134.143,8.672 C134.143,8.672 134.143,9.164 134.143,9.164 C134.143,9.164 133.747,9.164 133.747,9.164 C133.787,8.995 133.834,8.829 133.9,8.672 L134.143,8.672 z M139.072,8.672 L139.072,9.164 C139.072,9.164 138.579,9.164 138.579,9.164 C138.579,9.164 138.579,8.672 138.579,8.672 L139.072,8.672 z M135.129,8.672 C135.129,8.672 135.129,9.164 135.129,9.164 C135.129,9.164 134.636,9.164 134.636,9.164 L134.636,8.672 L135.129,8.672 z M136.115,8.672 C136.115,8.672 136.115,9.164 136.115,9.164 C136.115,9.164 135.622,9.164 135.622,9.164 L135.622,8.672 L136.115,8.672 z M138.086,8.672 C138.086,8.672 138.086,9.164 138.086,9.164 C138.086,9.164 137.594,9.164 137.594,9.164 L137.593,8.672 L138.086,8.672 z M139.808,8.672 C139.874,8.829 139.921,8.995 139.961,9.164 C139.961,9.164 139.565,9.164 139.565,9.164 L139.565,8.672 L139.808,8.672 z M137.101,8.672 C137.101,8.672 137.101,9.164 137.101,9.164 C137.101,9.164 136.607,9.164 136.607,9.164 L136.607,8.672 L137.101,8.672 z M137.101,7.688 C137.101,7.688 137.101,8.18 137.101,8.18 C137.101,8.18 136.607,8.18 136.607,8.18 L136.607,7.688 L137.101,7.688 z M139.072,7.688 C139.072,7.688 139.072,8.18 139.072,8.18 L138.579,8.18 C138.579,8.18 138.579,7.688 138.579,7.688 L139.072,7.688 z M138.086,7.688 C138.086,7.688 138.086,8.18 138.086,8.18 C138.086,8.18 137.594,8.18 137.594,8.18 L137.593,7.688 L138.086,7.688 z M136.115,7.688 C136.115,7.688 136.115,8.18 136.115,8.18 C136.115,8.18 135.622,8.18 135.622,8.18 L135.622,7.688 L136.115,7.688 z M135.129,7.688 C135.129,7.688 135.129,8.18 135.129,8.18 C135.129,8.18 134.636,8.18 134.636,8.18 L134.636,7.688 L135.129,7.688 z M136.115,6.805 C136.115,6.805 136.115,7.196 136.115,7.196 C136.115,7.196 135.622,7.196 135.622,7.196 L135.622,6.962 C135.779,6.895 135.946,6.847 136.115,6.805 z M137.593,6.801 C137.763,6.842 137.928,6.896 138.086,6.961 C138.086,6.961 138.086,7.196 138.086,7.196 C138.086,7.196 137.594,7.196 137.594,7.196 L137.593,6.801 z M136.854,6.704 C136.938,6.704 137.018,6.716 137.101,6.722 C137.101,6.722 137.101,7.196 137.101,7.196 C137.101,7.196 136.607,7.196 136.607,7.196 L136.607,6.73 C136.691,6.724 136.769,6.704 136.854,6.704 z M142.523,11.623 C141.978,11.623 141.537,12.063 141.537,12.606 C141.537,13.15 141.978,13.59 142.523,13.59 C143.067,13.59 143.508,13.15 143.508,12.606 C143.508,12.063 143.067,11.623 142.523,11.623 z M146.466,6.213 C146.466,6.213 141.537,6.213 141.537,6.213 C141.537,6.213 141.537,7.688 141.537,7.688 C141.537,7.688 144.248,7.688 144.248,7.688 C144.248,7.688 144.741,6.704 144.741,6.704 C144.741,6.704 145.234,7.688 145.234,7.688 C145.234,7.688 146.466,7.688 146.466,7.688 L146.466,6.213 z" fill="#FCE546"/>
      </g>
      <g>
        <path d="M129.743,15.17 C129.743,15.17 130.648,13.245 130.648,13.245 C129.713,12.439 129.105,11.261 129.072,9.964 C129.035,8.534 129.325,7.25 130.383,6.502 C130.383,6.502 129.419,4.83 129.419,4.83 C128.041,6.06 127.2,7.871 127.253,9.916 C127.307,11.985 128.266,13.866 129.743,15.17 z" fill="#FCE546"/>
        <path d="M129.743,15.17 C129.743,15.17 130.648,13.245 130.648,13.245 C129.713,12.439 129.105,11.261 129.072,9.964 C129.035,8.534 129.325,7.25 130.383,6.502 C130.383,6.502 129.419,4.83 129.419,4.83 C128.041,6.06 127.2,7.871 127.253,9.916 C127.307,11.985 128.266,13.866 129.743,15.17 z" fill="#FCE546"/>
      </g>
      <g>
        <path d="M127.664,17.597 C127.664,17.597 128.671,16.122 128.671,16.122 C127.08,14.525 126.04,12.349 125.977,9.978 C125.916,7.557 126.883,5.396 128.45,3.873 C128.45,3.873 127.327,2.403 127.327,2.403 C125.437,4.336 124.334,6.943 124.412,9.938 C124.488,12.876 125.735,15.576 127.664,17.597 z" fill="#FCE546"/>
        <path d="M127.664,17.597 C127.664,17.597 128.671,16.122 128.671,16.122 C127.08,14.525 126.04,12.349 125.977,9.978 C125.916,7.557 126.883,5.396 128.45,3.873 C128.45,3.873 127.327,2.403 127.327,2.403 C125.437,4.336 124.334,6.943 124.412,9.938 C124.488,12.876 125.735,15.576 127.664,17.597 z" fill="#FCE546"/>
      </g>
      <path d="M125.765,19.865 C125.765,19.865 126.833,18.555 126.833,18.555 C124.719,16.258 123.339,13.235 123.256,9.951 C123.171,6.672 124.392,3.72 126.385,1.53 C126.385,1.53 125.248,0.135 125.248,0.135 C122.972,2.716 121.64,6.092 121.738,9.911 C121.836,13.723 123.363,17.166 125.765,19.865 z" fill="#FCE546"/>
      <g>
        <path d="M150.148,4.76 C150.148,4.76 149.23,6.71 149.23,6.71 C150.177,7.528 150.794,8.722 150.827,10.037 C150.865,11.486 150.571,12.788 149.498,13.546 C149.498,13.546 150.476,15.24 150.476,15.24 C151.873,13.994 152.725,12.157 152.671,10.086 C152.617,7.987 151.645,6.081 150.148,4.76 z" fill="#FCE546"/>
        <path d="M150.148,4.76 C150.148,4.76 149.23,6.71 149.23,6.71 C150.177,7.528 150.794,8.722 150.827,10.037 C150.865,11.486 150.571,12.788 149.498,13.546 C149.498,13.546 150.476,15.24 150.476,15.24 C151.873,13.994 152.725,12.157 152.671,10.086 C152.617,7.987 151.645,6.081 150.148,4.76 z" fill="#FCE546"/>
      </g>
      <g>
        <path d="M152.255,2.299 C152.255,2.299 151.233,3.794 151.233,3.794 C152.847,5.414 153.901,7.619 153.964,10.022 C154.027,12.476 153.046,14.667 151.459,16.211 C151.459,16.211 152.596,17.701 152.596,17.701 C154.513,15.741 155.63,13.098 155.551,10.063 C155.474,7.085 154.21,4.348 152.255,2.299 z" fill="#FCE546"/>
        <path d="M152.255,2.299 C152.255,2.299 151.233,3.794 151.233,3.794 C152.847,5.414 153.901,7.619 153.964,10.022 C154.027,12.476 153.046,14.667 151.459,16.211 C151.459,16.211 152.596,17.701 152.596,17.701 C154.513,15.741 155.63,13.098 155.551,10.063 C155.474,7.085 154.21,4.348 152.255,2.299 z" fill="#FCE546"/>
      </g>
      <path d="M154.18,0 C154.18,0 153.097,1.328 153.097,1.328 C155.24,3.657 156.639,6.721 156.723,10.049 C156.81,13.373 155.571,16.366 153.552,18.586 C153.552,18.586 154.703,20 154.703,20 C157.011,17.384 158.361,13.962 158.262,10.09 C158.162,6.227 156.615,2.736 154.18,0 z" fill="#FCE546"/>
    </g>
  </g>
</svg>
