<?xml version="1.0" encoding="UTF-8"?>
<!DOCTYPE svg PUBLIC "-//W3C//DTD SVG 1.1//EN" "http://www.w3.org/Graphics/SVG/1.1/DTD/svg11.dtd">
<svg version="1.1" xmlns="http://www.w3.org/2000/svg" xmlns:xlink="http://www.w3.org/1999/xlink" x="0" y="0" width="80" height="22" viewBox="0, 0, 80, 22">
  <g id="Layer_1" transform="translate(-231.852, -302.579)">
    <g id="satellite">
      <path d="M294.201,319.316 C294.201,319.316 294.913,320.321 297.08,321.172 C297.023,321.172 298.66,324.579 298.66,324.579 C298.66,324.579 291.852,324.579 291.852,324.579 C291.852,324.579 294.201,319.316 294.201,319.316 z M294.986,309.555 C294.986,309.555 299.542,313.836 299.542,313.836 C299.542,313.836 300.196,313.215 300.196,313.215 C300.014,312.973 299.904,312.679 299.904,312.359 C299.904,311.543 300.6,310.881 301.459,310.881 C302.318,310.881 303.015,311.543 303.015,312.359 C303.015,313.174 302.318,313.836 301.459,313.836 C301.163,313.836 300.889,313.753 300.653,313.616 C300.653,313.616 299.984,314.251 299.984,314.251 C299.984,314.251 304.821,318.796 304.821,318.796 C304.702,318.931 304.579,319.066 304.436,319.202 C301.724,321.778 297.326,321.778 294.614,319.202 C291.902,316.626 291.902,312.449 294.614,309.873 C294.738,309.755 294.862,309.656 294.986,309.555 z M300.773,305.566 C302.784,305.613 304.794,306.353 306.329,307.81 C307.893,309.295 308.659,311.184 308.681,313.131 C308.681,313.131 307.361,312.954 307.361,312.954 C307.383,311.381 306.775,309.788 305.511,308.587 C304.272,307.411 302.635,306.833 301.011,306.83 C301.011,306.83 300.773,305.566 300.773,305.566 z M300.757,308.603 C301.993,308.526 303.255,308.936 304.199,309.832 C305.131,310.717 305.563,311.896 305.497,313.055 C305.497,313.055 304.325,312.741 304.325,312.741 C304.463,311.938 304.021,311.237 303.369,310.619 C302.778,310.057 301.984,309.804 301.21,309.861 C301.21,309.861 300.757,308.603 300.757,308.603 z M300.879,302.579 C303.644,302.74 306.337,303.779 308.456,305.791 C310.579,307.808 311.687,310.36 311.852,312.992 C311.852,312.992 310.48,312.852 310.48,312.852 C310.373,310.585 309.435,308.323 307.612,306.592 C305.787,304.858 303.401,303.967 301.01,303.868 C301.01,303.868 300.879,302.579 300.879,302.579 z" fill="#FFFFFF"/>
      <path d="M294.201,319.316 C294.201,319.316 294.913,320.321 297.08,321.172 C297.023,321.172 298.66,324.579 298.66,324.579 C298.66,324.579 291.852,324.579 291.852,324.579 C291.852,324.579 294.201,319.316 294.201,319.316 z M294.986,309.555 C294.986,309.555 299.542,313.836 299.542,313.836 C299.542,313.836 300.196,313.215 300.196,313.215 C300.014,312.973 299.904,312.679 299.904,312.359 C299.904,311.543 300.6,310.881 301.459,310.881 C302.318,310.881 303.015,311.543 303.015,312.359 C303.015,313.174 302.318,313.836 301.459,313.836 C301.163,313.836 300.889,313.753 300.653,313.616 C300.653,313.616 299.984,314.251 299.984,314.251 C299.984,314.251 304.821,318.796 304.821,318.796 C304.702,318.931 304.579,319.066 304.436,319.202 C301.724,321.778 297.326,321.778 294.614,319.202 C291.902,316.626 291.902,312.449 294.614,309.873 C294.738,309.755 294.862,309.656 294.986,309.555 z M300.773,305.566 C302.784,305.613 304.794,306.353 306.329,307.81 C307.893,309.295 308.659,311.184 308.681,313.131 C308.681,313.131 307.361,312.954 307.361,312.954 C307.383,311.381 306.775,309.788 305.511,308.587 C304.272,307.411 302.635,306.833 301.011,306.83 C301.011,306.83 300.773,305.566 300.773,305.566 z M300.757,308.603 C301.993,308.526 303.255,308.936 304.199,309.832 C305.131,310.717 305.563,311.896 305.497,313.055 C305.497,313.055 304.325,312.741 304.325,312.741 C304.463,311.938 304.021,311.237 303.369,310.619 C302.778,310.057 301.984,309.804 301.21,309.861 C301.21,309.861 300.757,308.603 300.757,308.603 z M300.879,302.579 C303.644,302.74 306.337,303.779 308.456,305.791 C310.579,307.808 311.687,310.36 311.852,312.992 C311.852,312.992 310.48,312.852 310.48,312.852 C310.373,310.585 309.435,308.323 307.612,306.592 C305.787,304.858 303.401,303.967 301.01,303.868 C301.01,303.868 300.879,302.579 300.879,302.579 z" fill="#000000"/>
    </g>
    <g>
      <path d="M274.201,319.316 C274.201,319.316 274.913,320.321 277.08,321.172 C277.023,321.172 278.66,324.579 278.66,324.579 C278.66,324.579 271.852,324.579 271.852,324.579 C271.852,324.579 274.201,319.316 274.201,319.316 z" fill="#FFFFFF"/>
      <path d="M274.201,319.316 C274.201,319.316 274.913,320.321 277.08,321.172 C277.023,321.172 278.66,324.579 278.66,324.579 C278.66,324.579 271.852,324.579 271.852,324.579 C271.852,324.579 274.201,319.316 274.201,319.316 z" fill="#000000"/>
    </g>
    <g>
      <path d="M274.986,309.555 C274.862,309.656 274.738,309.755 274.614,309.873 C271.902,312.449 271.902,316.626 274.614,319.202 C277.326,321.778 281.724,321.778 284.436,319.202 C284.579,319.066 284.702,318.931 284.821,318.796 C284.821,318.796 279.984,314.251 279.984,314.251 C279.984,314.251 280.653,313.616 280.653,313.616 C280.889,313.753 281.163,313.836 281.459,313.836 C282.318,313.836 283.015,313.174 283.015,312.359 C283.015,311.543 282.318,310.881 281.459,310.881 C280.6,310.881 279.904,311.543 279.904,312.359 C279.904,312.679 280.014,312.973 280.196,313.215 C280.196,313.215 279.542,313.836 279.542,313.836 C279.542,313.836 274.986,309.555 274.986,309.555 z" fill="#FFFFFF"/>
      <path d="M274.986,309.555 C274.862,309.656 274.738,309.755 274.614,309.873 C271.902,312.449 271.902,316.626 274.614,319.202 C277.326,321.778 281.724,321.778 284.436,319.202 C284.579,319.066 284.702,318.931 284.821,318.796 C284.821,318.796 279.984,314.251 279.984,314.251 C279.984,314.251 280.653,313.616 280.653,313.616 C280.889,313.753 281.163,313.836 281.459,313.836 C282.318,313.836 283.015,313.174 283.015,312.359 C283.015,311.543 282.318,310.881 281.459,310.881 C280.6,310.881 279.904,311.543 279.904,312.359 C279.904,312.679 280.014,312.973 280.196,313.215 C280.196,313.215 279.542,313.836 279.542,313.836 C279.542,313.836 274.986,309.555 274.986,309.555 z" fill="#000000"/>
    </g>
    <g>
      <path d="M280.773,305.566 C280.773,305.566 281.011,306.83 281.011,306.83 C282.635,306.833 284.272,307.411 285.511,308.587 C286.775,309.788 287.383,311.381 287.361,312.954 C287.361,312.954 288.681,313.131 288.681,313.131 C288.659,311.184 287.893,309.295 286.329,307.81 C284.794,306.353 282.784,305.613 280.773,305.566 z" fill="#FFFFFF"/>
      <path d="M280.773,305.566 C280.773,305.566 281.011,306.83 281.011,306.83 C282.635,306.833 284.272,307.411 285.511,308.587 C286.775,309.788 287.383,311.381 287.361,312.954 C287.361,312.954 288.681,313.131 288.681,313.131 C288.659,311.184 287.893,309.295 286.329,307.81 C284.794,306.353 282.784,305.613 280.773,305.566 z" fill="#000000"/>
    </g>
    <g>
      <path d="M280.757,308.603 C280.757,308.603 281.21,309.861 281.21,309.861 C281.984,309.804 282.778,310.057 283.369,310.619 C284.021,311.238 284.463,311.938 284.325,312.741 C284.325,312.741 285.497,313.055 285.497,313.055 C285.563,311.896 285.131,310.717 284.199,309.832 C283.255,308.936 281.993,308.526 280.757,308.603 z" fill="#FFFFFF"/>
      <path d="M280.757,308.603 C280.757,308.603 281.21,309.861 281.21,309.861 C281.984,309.804 282.778,310.057 283.369,310.619 C284.021,311.238 284.463,311.938 284.325,312.741 C284.325,312.741 285.497,313.055 285.497,313.055 C285.563,311.896 285.131,310.717 284.199,309.832 C283.255,308.936 281.993,308.526 280.757,308.603 z" fill="#000000"/>
    </g>
    <g>
      <path d="M254.2,319.316 C254.201,319.316 254.913,320.321 257.08,321.172 C257.023,321.172 258.66,324.579 258.66,324.579 C258.66,324.579 251.852,324.579 251.852,324.579 C251.852,324.579 254.201,319.316 254.201,319.316 z" fill="#FFFFFF"/>
      <path d="M254.2,319.316 C254.201,319.316 254.913,320.321 257.08,321.172 C257.023,321.172 258.66,324.579 258.66,324.579 C258.66,324.579 251.852,324.579 251.852,324.579 C251.852,324.579 254.201,319.316 254.201,319.316 z" fill="#000000"/>
    </g>
    <g>
      <path d="M254.986,309.555 C254.862,309.656 254.738,309.755 254.614,309.873 C251.902,312.449 251.902,316.626 254.614,319.202 C257.326,321.778 261.724,321.778 264.436,319.202 C264.579,319.066 264.702,318.931 264.821,318.796 C264.821,318.796 259.984,314.251 259.984,314.251 C259.984,314.251 260.653,313.616 260.653,313.616 C260.889,313.753 261.163,313.836 261.459,313.836 C262.318,313.836 263.015,313.174 263.015,312.359 C263.015,311.543 262.318,310.881 261.459,310.881 C260.6,310.881 259.904,311.543 259.904,312.359 C259.904,312.679 260.014,312.973 260.196,313.215 C260.196,313.215 259.542,313.836 259.542,313.836 C259.542,313.836 254.986,309.555 254.986,309.555 z" fill="#FFFFFF"/>
      <path d="M254.986,309.555 C254.862,309.656 254.738,309.755 254.614,309.873 C251.902,312.449 251.902,316.626 254.614,319.202 C257.326,321.778 261.724,321.778 264.436,319.202 C264.579,319.066 264.702,318.931 264.821,318.796 C264.821,318.796 259.984,314.251 259.984,314.251 C259.984,314.251 260.653,313.616 260.653,313.616 C260.889,313.753 261.163,313.836 261.459,313.836 C262.318,313.836 263.015,313.174 263.015,312.359 C263.015,311.543 262.318,310.881 261.459,310.881 C260.6,310.881 259.904,311.543 259.904,312.359 C259.904,312.679 260.014,312.973 260.196,313.215 C260.196,313.215 259.542,313.836 259.542,313.836 C259.542,313.836 254.986,309.555 254.986,309.555 z" fill="#000000"/>
    </g>
    <g>
      <path d="M260.757,308.603 C260.757,308.603 261.21,309.861 261.21,309.861 C261.984,309.804 262.778,310.057 263.369,310.619 C264.021,311.238 264.463,311.938 264.325,312.741 C264.325,312.741 265.497,313.055 265.497,313.055 C265.563,311.896 265.131,310.717 264.199,309.832 C263.255,308.936 261.993,308.526 260.757,308.603 z" fill="#FFFFFF"/>
      <path d="M260.757,308.603 C260.757,308.603 261.21,309.861 261.21,309.861 C261.984,309.804 262.778,310.057 263.369,310.619 C264.021,311.238 264.463,311.938 264.325,312.741 C264.325,312.741 265.497,313.055 265.497,313.055 C265.563,311.896 265.131,310.717 264.199,309.832 C263.255,308.936 261.993,308.526 260.757,308.603 z" fill="#000000"/>
    </g>
    <g>
      <path d="M234.2,319.316 C234.201,319.316 234.913,320.321 237.08,321.172 C237.023,321.172 238.66,324.579 238.66,324.579 C238.66,324.579 231.852,324.579 231.852,324.579 C231.852,324.579 234.201,319.316 234.201,319.316 z" fill="#FFFFFF"/>
      <path d="M234.2,319.316 C234.201,319.316 234.913,320.321 237.08,321.172 C237.023,321.172 238.66,324.579 238.66,324.579 C238.66,324.579 231.852,324.579 231.852,324.579 C231.852,324.579 234.201,319.316 234.201,319.316 z" fill="#000000"/>
    </g>
    <g>
      <path d="M234.986,309.555 C234.862,309.656 234.738,309.755 234.614,309.873 C231.902,312.449 231.902,316.626 234.614,319.202 C237.326,321.778 241.724,321.778 244.436,319.202 C244.579,319.066 244.702,318.931 244.821,318.796 C244.821,318.796 239.984,314.251 239.984,314.251 C239.984,314.251 240.653,313.616 240.653,313.616 C240.889,313.753 241.163,313.836 241.459,313.836 C242.318,313.836 243.015,313.174 243.015,312.359 C243.015,311.543 242.318,310.881 241.459,310.881 C240.6,310.881 239.904,311.543 239.904,312.359 C239.904,312.679 240.014,312.973 240.196,313.215 C240.196,313.215 239.542,313.836 239.542,313.836 C239.542,313.836 234.986,309.555 234.986,309.555 z" fill="#FFFFFF"/>
      <path d="M234.986,309.555 C234.862,309.656 234.738,309.755 234.614,309.873 C231.902,312.449 231.902,316.626 234.614,319.202 C237.326,321.778 241.724,321.778 244.436,319.202 C244.579,319.066 244.702,318.931 244.821,318.796 C244.821,318.796 239.984,314.251 239.984,314.251 C239.984,314.251 240.653,313.616 240.653,313.616 C240.889,313.753 241.163,313.836 241.459,313.836 C242.318,313.836 243.015,313.174 243.015,312.359 C243.015,311.543 242.318,310.881 241.459,310.881 C240.6,310.881 239.904,311.543 239.904,312.359 C239.904,312.679 240.014,312.973 240.196,313.215 C240.196,313.215 239.542,313.836 239.542,313.836 C239.542,313.836 234.986,309.555 234.986,309.555 z" fill="#000000"/>
    </g>
  </g>
</svg>
